<?xml version="1.0" encoding="UTF-8" standalone="no"?>
<svg
   width="1000"
   height="200"
   viewBox="0 0 264.58333 52.916666"
   version="1.1"
   id="svg5"
   xmlns:inkscape="http://www.inkscape.org/namespaces/inkscape"
   xmlns:sodipodi="http://sodipodi.sourceforge.net/DTD/sodipodi-0.0"
   xmlns="http://www.w3.org/2000/svg"
   xmlns:svg="http://www.w3.org/2000/svg"
   xml:space="preserve">
  <defs id="defs2" />
  <g
     inkscape:label="Layer 1"
     inkscape:groupmode="layer"
     id="layer1">
    <g
       aria-label="PolyBlack"
       id="text382"
       style="font-size:59.2131px;font-family:Impact;-inkscape-font-specification:Impact;fill:#28346a;stroke:#212b58;stroke-width:1.32292">
      <g id="g5117">
        <g
           id="g5128"
           transform="matrix(1,0,-0.19146517,1,7.8303099,0)">

          <!-- Thin horizontal rule rect 1 (unchanged) -->
          <rect
             style="fill:#112052;fill-opacity:1;stroke:none;stroke-width:0.37098;stroke-dasharray:none;stroke-opacity:1"
             width="72.351089"
             height="0.95230049"
             x="143.26874"
             y="3.2728517"
             transform="matrix(1,0,0.18804934,0.98215958,0,0)" />

          <!-- Thin horizontal rule rect 2 (unchanged) -->
          <rect
             style="fill:#112052;fill-opacity:1;stroke:none;stroke-width:0.372483;stroke-dasharray:none;stroke-opacity:1"
             width="72.938583"
             height="0.95230049"
             x="142.6154"
             y="7.2492614"
             transform="matrix(1,0,0.18804934,0.98215958,0,0)" />

          <!-- Car / track icon (unchanged) -->
          <g
             id="g872"
             transform="matrix(0.07480357,0,0.01424868,0.07441914,212.37131,-1.9847472)"
             style="fill:#b3c1ff;fill-opacity:1">
            <rect y="122.35137" x="24.190477" height="12.567708" width="24.072357"
               style="opacity:1;fill:#b3c1ff;fill-opacity:1;stroke:none;stroke-width:10;stroke-linecap:square;stroke-linejoin:bevel;stroke-miterlimit:4;stroke-dasharray:none;stroke-opacity:1;paint-order:stroke fill markers" />
            <rect y="118.76457" x="128.67104" height="12.567708" width="24.072357"
               style="opacity:1;fill:#b3c1ff;fill-opacity:1;stroke:none;stroke-width:10;stroke-linecap:square;stroke-linejoin:bevel;stroke-miterlimit:4;stroke-dasharray:none;stroke-opacity:1;paint-order:stroke fill markers" />
            <path
               d="m 20.938897,104.1713 h -2.296848 v 2.40751 h 2.3052 v 6.76526 h 5.220108 v 7.36547 h 6.468523 v -7.27604 h 2.303293 v 8.97693 h 2.385976 v -8.98874 h 10.370722 l 11.221167,11.62277 49.514882,2.83481 4.74832,-14.62295 26.46809,-4.04657 v 9.68852 h 2.23838 v -10.02261 l 2.05135,-0.30861 v 5.23261 h 6.45116 v -7.43801 l 1.52845,-0.55124 2.3e-4,-6.841554 -1.52845,-0.55124 v -7.438007 h -6.45116 v 5.232607 l -2.05135,-0.30861 V 85.880999 h -2.23838 v 9.688517 l -26.46809,-4.04657 -4.74832,-14.622944 -49.514867,2.834807 -11.22117,11.622767 H 37.325392 v -8.988737 h -2.385976 v 8.976927 H 32.636123 V 84.069729 H 26.1676 v 7.365467 h -5.220108 v 6.76526 h -2.3052 v 2.407514 h 2.296848 z"
               style="fill:#b3c1ff;fill-opacity:1;stroke:none;stroke-width:0.264583px;stroke-linecap:butt;stroke-linejoin:miter;stroke-opacity:1" />
            <rect transform="scale(1,-1)" y="-82.427887" x="24.155148" height="12.567708" width="24.072357"
               style="opacity:1;fill:#b3c1ff;fill-opacity:1;stroke:none;stroke-width:10;stroke-linecap:square;stroke-linejoin:bevel;stroke-miterlimit:4;stroke-dasharray:none;stroke-opacity:1;paint-order:stroke fill markers" />
            <rect transform="scale(1,-1)" y="-86.014694" x="128.63574" height="12.567708" width="24.072357"
               style="opacity:1;fill:#b3c1ff;fill-opacity:1;stroke:none;stroke-width:10;stroke-linecap:square;stroke-linejoin:bevel;stroke-miterlimit:4;stroke-dasharray:none;stroke-opacity:1;paint-order:stroke fill markers" />
          </g>

          <!--
            WORDMARK: "PolyBlack"

            Subpath order:
              P outer         x=1.624
              P crossbar      x=7.882
              l (Poly)        x=70.147
              o outer         x=39.078
              o inner         x=45.568
              y               x=82.433
              B outer         x=113.184  [NEW — replaces T]
              B top-counter   x=119.534  [NEW — counter cutout]
              B bot-counter   x=119.534  [NEW — counter cutout]
              l (Black)       x=140.500  [NEW — replaces r]
              a outer         x=152.749  [shifted -16.392 from original 169.141]
              a inner         x=159.446  [shifted -16.392 from original 175.838]
              c               x=183.823  [shifted -16.392 from original 200.215]
              K               x=214.777  [shifted -16.392 from original 231.169]
          -->
          <path
             id="path4993"
             style="font-family:'FORCED SQUARE';-inkscape-font-specification:'FORCED SQUARE';fill:#b3c1ff;fill-opacity:1;fill-rule:evenodd;stroke:#112052;stroke-width:1.40413;stroke-dasharray:none;stroke-opacity:1"
             d="
               M 1.6239476,3.8939758 2.3539792,38.725172 H 8.462681 L 8.169459,24.739338 H 33.079421 L 32.642612,3.8939758 Z
               M 7.882283,11.02028 H 26.445967 L 26.589554,17.879808 H 8.025872 Z
               M 70.147263,2.095689 L 70.915185,38.725172 H 77.023886 L 76.255902,2.095689 Z
               M 39.078485,11.020277 L 39.659398,38.725166 H 64.568843 L 63.988446,11.020277 Z
               M 45.568351,17.879808 H 57.785755 L 58.078977,31.86564 H 45.861574 Z
               M 82.43260,11.02028 L 83.01351,38.72517 H 99.02700 L 92.70848,45.71780 L 92.80193,50.17980 H 97.60629 L 107.68638,38.72517 107.10598,11.02028 H 101.09676 L 101.53357,31.86564 H 88.97911 L 88.54230,11.02028 Z

               M 113.18400,3.89400 H 136.68400 V 21.30950 H 138.18400 V 38.72500 H 113.18400 Z
               M 119.44200,9.79400 V 18.35950 H 131.14200 V 9.79400 Z
               M 119.44200,24.25950 V 32.82500 H 132.64200 V 24.25950 Z

               M 142.00000,2.09600 V 38.72500 H 148.10800 V 2.09600 Z

               M 152.74900,10.95300 L 152.88575,17.47949 H 171.44943 L 171.54423,22.00834 H 152.98056 L 153.32933,38.65789 H 178.23876 L 177.65842,10.95300 Z
               M 159.44600,27.66983 H 171.66340 L 171.76372,32.46487 H 159.44600 Z

               M 183.82300,10.75400 L 184.40751,38.65883 H 209.31746 L 209.16795,31.53310 H 190.60426 L 190.31698,17.81347 H 208.88067 L 208.73244,10.75400 Z

               M 214.77700,2.02900 L 215.54621,38.72474 H 221.65492 L 221.43878,28.40174 H 225.17533 L 234.52502,38.72474 H 240.21860 L 240.14610,35.26127 L 230.73287,24.73891 L 239.71070,14.48275 L 239.63820,11.01985 H 234.18168 L 225.02710,21.34227 H 221.29040 L 220.88608,2.02900 Z
             " />

        </g>
      </g>
    </g>
  </g>
</svg>
