<?xml version="1.0" encoding="UTF-8"?>
<svg version="1.1" xmlns="http://www.w3.org/2000/svg" width="2048" height="2048">
<path d="M0 0 C675.84 0 1351.68 0 2048 0 C2048 675.84 2048 1351.68 2048 2048 C1372.16 2048 696.32 2048 0 2048 C0 1372.16 0 696.32 0 0 Z " fill="#FE0000" transform="translate(0,0)"/>
<path d="M0 0 C92.73 0 185.46 0 281 0 C281.2826505 128.83927503 281.2826505 128.83927503 281.33715475 178.49275243 C281.35143959 191.47325096 281.36605309 204.45374905 281.38168196 217.43424604 C281.38357092 219.00384345 281.38544952 220.57344086 281.38731762 222.1430383 C281.41705044 247.05289399 281.46947391 271.96263659 281.53408055 296.87242426 C281.60049934 322.52822335 281.64328771 348.18396021 281.65740493 373.83984381 C281.65942126 377.48470771 281.6617007 381.1295714 281.6641407 384.77443504 C281.66461266 385.49161787 281.66508462 386.2088007 281.66557089 386.94771634 C281.67376142 398.37468319 281.70600271 409.80145446 281.74782424 421.22834233 C281.78959551 432.78757807 281.80408257 444.34657772 281.79450964 455.90589098 C281.79009352 462.14012607 281.79610226 468.37379994 281.83443832 474.60793114 C282.01639589 505.75660618 279.76418616 535.68592917 274.86440289 566.45351064 C273.63069782 574.25573694 272.59622243 582.08432532 271.56329017 589.91518644 C271.04699581 593.80541804 270.51361647 597.69331333 269.98071289 601.58129883 C269.8694764 602.39302668 269.75823991 603.20475453 269.64363262 604.0410802 C265.21677041 636.32440876 260.28327093 668.45501043 254.62461853 700.54640198 C253.34022214 707.8873464 252.17108214 715.24056266 251.05859375 722.609375 C249.58601835 732.35984552 248.00174627 742.08813816 246.34375 751.80859375 C246.22823729 752.48645243 246.11272457 753.1643111 245.99371147 753.86271095 C244.92746536 760.11601776 243.85532809 766.36831172 242.78173828 772.62036133 C242.07027311 776.76593449 241.36174198 780.91199987 240.65625 785.05859375 C240.54053146 785.73861891 240.42481293 786.41864407 240.30558777 787.11927605 C238.75767573 796.24096962 237.32222169 805.37377597 236 814.53125 C233.79919584 829.76003893 231.14852693 844.90691537 228.5 860.0625 C227.66614677 864.83856544 226.8344107 869.61499085 226.00644302 874.39208031 C225.77359099 875.73394907 225.54010177 877.07570742 225.30596542 878.41735268 C223.89967106 886.48159673 222.61086619 894.55009738 221.45565796 902.65396118 C219.98476392 912.87882503 218.13911336 922.49900316 214.59658813 932.20898438 C213.54967229 935.07951295 212.55643328 937.96811696 211.55677795 940.8553772 C210.99449441 942.47749812 210.42960799 944.09871884 209.86228943 945.71908569 C205.92170224 957.00134343 202.24758705 968.3727879 198.54180908 979.73379517 C197.32452735 983.46315208 196.10296116 987.19108151 194.88037109 990.91870117 C194.1245503 993.22701012 193.36884821 995.53535795 192.61328125 997.84375 C192.26277206 998.91192459 191.91226288 999.98009918 191.5511322 1001.0806427 C191.22915359 1002.0665892 190.90717499 1003.05253571 190.57543945 1004.06835938 C190.29408646 1004.92796265 190.01273346 1005.78756592 189.72285461 1006.67321777 C189.07439502 1008.76053138 188.5301153 1010.8795388 188 1013 C156.65 1013 125.3 1013 93 1013 C89.21691668 1001.65075003 85.53971104 990.55604494 82.24609375 979.109375 C80.77276914 974.12785198 78.99916693 969.2616923 77.23242188 964.37841797 C75.2061837 958.72292157 73.476694 953.01155624 71.82641602 947.23657227 C70.49029913 942.58512478 69.01258185 938.0138811 67.4375 933.4375 C62.72983947 919.43530259 59.97386932 905.15799295 57.5 890.62280273 C57.00696767 887.72840442 56.50427799 884.83581716 56 881.94335938 C54.22038539 871.65448686 52.59051167 861.35328923 51.09375 851.01953125 C49.65185281 841.09180769 48.0567226 831.19666897 46.34375 821.3125 C46.22828827 820.6460528 46.11282654 819.9796056 45.99386597 819.29296303 C45.16708663 814.52785218 44.33421305 809.76381424 43.5 805 C42.54794017 799.56321601 41.59851091 794.12599177 40.65625 788.6875 C40.54053146 788.01989655 40.42481293 787.35229309 40.30558777 786.66445923 C38.55492823 776.5342788 36.99288179 766.38527498 35.52563477 756.21044922 C34.26354723 747.55449973 32.83762288 738.93095239 31.34375 730.3125 C31.22815231 729.64529938 31.11255463 728.97809875 30.99345398 728.29067993 C30.16681086 723.52633028 29.33407967 718.76305256 28.5 714 C25.26985125 695.55407835 22.17937641 677.1061264 19.51605225 658.56774902 C18.96664102 654.76937131 18.40515874 650.97286521 17.84033203 647.17675781 C14.67989926 625.91042291 11.68445804 604.62250543 8.73236084 583.32635498 C8.25240995 579.86620006 7.77122777 576.40621686 7.28999901 572.94623947 C6.70070652 568.70901225 6.1120112 564.47170212 5.5234375 560.234375 C5.4172044 559.46974693 5.3109713 558.70511887 5.20151901 557.91732025 C5.09830967 557.17412788 4.99510033 556.43093552 4.88876343 555.66522217 C4.79227779 554.9712573 4.69579216 554.27729243 4.59638272 553.56229832 C4.39149795 552.08111237 4.18825888 550.59969694 3.98737125 549.11796359 C3.44043675 545.09696854 2.86225965 541.08399553 2.23231238 537.07512605 C0.20771717 523.84743149 -0.42216175 510.9790907 -0.36076355 497.6131897 C-0.36207559 495.44930514 -0.3647093 493.28542106 -0.36853105 491.12153947 C-0.3751697 485.24236408 -0.36333576 479.36335581 -0.34819686 473.48420167 C-0.33514405 467.11915782 -0.33963245 460.75412209 -0.34190369 454.3890686 C-0.34347062 443.38337593 -0.33422823 432.37773781 -0.31719017 421.37205887 C-0.29938445 409.84072234 -0.28788135 398.30940727 -0.28463173 386.7780571 C-0.28442551 386.05866904 -0.28421929 385.33928099 -0.28400682 384.5980933 C-0.2829917 380.94406705 -0.28208759 377.29004079 -0.2812262 373.63601451 C-0.27493995 347.8147829 -0.25476995 321.99357919 -0.22631836 296.17236328 C-0.19872552 271.1014012 -0.17754488 246.03044685 -0.16479492 220.95947266 C-0.163983 219.38047707 -0.16317088 217.80148149 -0.16235858 216.2224859 C-0.15579141 203.39063653 -0.14966401 190.55878695 -0.14364313 177.72693731 C-0.11552939 118.48459842 -0.05530541 59.24233245 0 0 Z " fill="#00FE00" transform="translate(519,774)"/>
<path d="M0 0 C92.73 0 185.46 0 281 0 C281 96.03 281 192.06 281 291 C188.27 291 95.54 291 0 291 C0 194.97 0 98.94 0 0 Z " fill="#00FE00" transform="translate(519,164)"/>
<path d="M0 0 C70.29 0 140.58 0 213 0 C213 6.6219307 212.85193112 12.87671142 212.15234375 19.41015625 C212.06059372 20.3051181 211.96884369 21.20007996 211.87431335 22.12216187 C211.5671873 25.10283302 211.25246313 28.08264753 210.9375 31.0625 C210.71307654 33.22075309 210.48896435 35.37903856 210.26513672 37.53735352 C208.14100395 57.94025137 205.93510686 78.33466216 203.72827148 98.72875977 C201.70081608 117.46650842 199.69878093 136.20678477 197.71684647 154.94940186 C195.0151993 180.4973979 192.28251081 206.04191985 189.52377605 231.58381557 C189.31069792 233.55668952 189.09770844 235.52957305 188.88471985 237.50245667 C188.62845484 239.87564305 188.37196208 242.24880486 188.11515808 244.62193298 C187.05764968 254.41272047 186.03092242 264.20623697 185 274 C133.52 274 82.04 274 29 274 C26.75028724 262.75143618 26.75028724 262.75143618 26.2097168 257.33666992 C26.08564957 256.11935684 25.96158234 254.90204376 25.83375549 253.64784241 C25.70685837 252.3551091 25.57996124 251.06237579 25.44921875 249.73046875 C25.30951329 248.34524294 25.16931888 246.96006638 25.02867126 245.57493591 C24.7313912 242.63974913 24.43686108 239.7043057 24.14459229 236.76861572 C23.4473979 229.76945735 22.73468644 222.77187088 22.02251434 215.77422333 C21.86411171 214.21740101 21.70587331 212.66056197 21.54779816 211.10370636 C20.31206413 198.93569988 19.00800672 186.77716468 17.625 174.625 C14.99770536 151.47853704 12.61376496 128.30657518 10.20197296 105.13690567 C7.599888 80.14139642 4.97019919 55.15113113 2.13391113 30.18087769 C0.98744486 20.05686703 0 10.20633787 0 0 Z " fill="#00FE00" transform="translate(553,473)"/>
<path d="M0 0 C0.495 1.485 0.495 1.485 1 3 C3.00016466 4.20882096 3.00016466 4.20882096 5 5 C5 5.99 5 6.98 5 8 C5.60328125 8.05800781 6.2065625 8.11601563 6.828125 8.17578125 C9 9 9 9 10.484375 11.23046875 C15.8522047 23.77197209 15.11527402 37.11673543 11 50 C9.0390625 52.765625 9.0390625 52.765625 7 55 C6.21625 55.886875 5.4325 56.77375 4.625 57.6875 C1.80641344 60.17054054 -0.39200239 61.07702387 -4 62 C-4 62.66 -4 63.32 -4 64 C-9.61 65.98 -15.22 67.96 -21 70 C-21.14478062 75.88171273 -21.2879132 81.76342489 -21.42724609 87.64526367 C-21.47485008 89.63584526 -21.52331812 91.62640642 -21.57275391 93.61694336 C-21.83536817 104.21530471 -22.05102203 114.8122407 -22.08984375 125.4140625 C-22.09580566 126.25269333 -22.10176758 127.09132416 -22.10791016 127.95536804 C-22.27376834 140.34497213 -22.27376834 140.34497213 -19 152 C-17.79163829 160.38394172 -17.89612322 168.9244338 -17.875 177.375 C-17.86811157 178.92598389 -17.86811157 178.92598389 -17.86108398 180.50830078 C-17.88961675 194.60348887 -17.88961675 194.60348887 -21.0625 200.4375 C-21.42472656 201.11683594 -21.78695313 201.79617188 -22.16015625 202.49609375 C-22.43730469 202.99238281 -22.71445313 203.48867188 -23 204 C-23.66 204 -24.32 204 -25 204 C-25.03867188 204.73863281 -25.07734375 205.47726562 -25.1171875 206.23828125 C-26.38910724 210.21725141 -28.57622965 211.09784821 -32.125 213.1875 C-33.24132813 213.86167969 -34.35765625 214.53585937 -35.5078125 215.23046875 C-43.76198934 219.41295433 -52.30689492 220.58671469 -61.265625 218.08984375 C-67.51217195 215.6973855 -71.14783319 213.41710958 -75 208 C-75.70125 207.649375 -76.4025 207.29875 -77.125 206.9375 C-80.9327813 205.03360935 -82.10338937 200.96599019 -83.484375 197.16015625 C-85.47628465 191.05904946 -86.06842327 184.86419354 -86.6875 178.5 C-86.81415039 177.23857178 -86.94080078 175.97714355 -87.07128906 174.67749023 C-89.6372443 147.05543168 -89.6372443 147.05543168 -87.49702454 135.21809387 C-87.01240491 132.08031828 -86.8795494 129.16637337 -86.88647461 125.99462891 C-86.88658791 124.25350327 -86.88658791 124.25350327 -86.88670349 122.47720337 C-86.89186478 121.23949188 -86.89702606 120.0017804 -86.90234375 118.7265625 C-86.9037587 117.44768158 -86.90517365 116.16880066 -86.90663147 114.85116577 C-86.91126978 111.46788664 -86.92023919 108.08467614 -86.93133545 104.70141602 C-86.94160485 101.24235626 -86.94614089 97.78328939 -86.95117188 94.32421875 C-86.96218391 87.54946034 -86.97890936 80.77473413 -87 74 C-87.99 74 -88.98 74 -90 74 C-90 73.34 -90 72.68 -90 72 C-91.485 71.505 -91.485 71.505 -93 71 C-93.495 70.01 -93.495 70.01 -94 69 C-95.010625 68.5875 -96.02125 68.175 -97.0625 67.75 C-106.78504746 63.70557964 -112.02695981 57.12407743 -116.03515625 47.51953125 C-119.30789926 37.94485519 -118.99556843 28.30288951 -115 19 C-109.84073325 9.21185841 -101.81195876 1.86630747 -91.22265625 -1.578125 C-80.58534543 -3.59715763 -71.26980819 -2.01892922 -61.40234375 1.90625 C-55.40744563 3.83342735 -50.96454862 3.36712712 -45.3125 0.75 C-28.70005229 -6.52961192 -16.5383905 -8.26919525 0 0 Z " fill="#02FC00" transform="translate(1187,756)"/>
<path d="M0 0 C0.495 1.485 0.495 1.485 1 3 C3.00016466 4.20882096 3.00016466 4.20882096 5 5 C5 5.99 5 6.98 5 8 C5.60328125 8.05800781 6.2065625 8.11601563 6.828125 8.17578125 C9 9 9 9 10.484375 11.23046875 C15.8522047 23.77197209 15.11527402 37.11673543 11 50 C9.0390625 52.765625 9.0390625 52.765625 7 55 C6.21625 55.886875 5.4325 56.77375 4.625 57.6875 C1.80641344 60.17054054 -0.39200239 61.07702387 -4 62 C-4 62.66 -4 63.32 -4 64 C-9.61 65.98 -15.22 67.96 -21 70 C-21.14478062 75.88171273 -21.2879132 81.76342489 -21.42724609 87.64526367 C-21.47485008 89.63584526 -21.52331812 91.62640642 -21.57275391 93.61694336 C-21.83536817 104.21530471 -22.05102203 114.8122407 -22.08984375 125.4140625 C-22.09580566 126.25269333 -22.10176758 127.09132416 -22.10791016 127.95536804 C-22.27376834 140.34497213 -22.27376834 140.34497213 -19 152 C-17.79163829 160.38394172 -17.89612322 168.9244338 -17.875 177.375 C-17.86811157 178.92598389 -17.86811157 178.92598389 -17.86108398 180.50830078 C-17.88961675 194.60348887 -17.88961675 194.60348887 -21.0625 200.4375 C-21.42472656 201.11683594 -21.78695313 201.79617188 -22.16015625 202.49609375 C-22.43730469 202.99238281 -22.71445313 203.48867188 -23 204 C-23.66 204 -24.32 204 -25 204 C-25.03867188 204.73863281 -25.07734375 205.47726562 -25.1171875 206.23828125 C-26.38910724 210.21725141 -28.57622965 211.09784821 -32.125 213.1875 C-33.24132813 213.86167969 -34.35765625 214.53585937 -35.5078125 215.23046875 C-43.76198934 219.41295433 -52.30689492 220.58671469 -61.265625 218.08984375 C-67.51217195 215.6973855 -71.14783319 213.41710958 -75 208 C-75.70125 207.649375 -76.4025 207.29875 -77.125 206.9375 C-80.9327813 205.03360935 -82.10338937 200.96599019 -83.484375 197.16015625 C-85.47628465 191.05904946 -86.06842327 184.86419354 -86.6875 178.5 C-86.81415039 177.23857178 -86.94080078 175.97714355 -87.07128906 174.67749023 C-89.6372443 147.05543168 -89.6372443 147.05543168 -87.49702454 135.21809387 C-87.01240491 132.08031828 -86.8795494 129.16637337 -86.88647461 125.99462891 C-86.88658791 124.25350327 -86.88658791 124.25350327 -86.88670349 122.47720337 C-86.89186478 121.23949188 -86.89702606 120.0017804 -86.90234375 118.7265625 C-86.9037587 117.44768158 -86.90517365 116.16880066 -86.90663147 114.85116577 C-86.91126978 111.46788664 -86.92023919 108.08467614 -86.93133545 104.70141602 C-86.94160485 101.24235626 -86.94614089 97.78328939 -86.95117188 94.32421875 C-86.96218391 87.54946034 -86.97890936 80.77473413 -87 74 C-87.99 74 -88.98 74 -90 74 C-90 73.34 -90 72.68 -90 72 C-91.485 71.505 -91.485 71.505 -93 71 C-93.495 70.01 -93.495 70.01 -94 69 C-95.010625 68.5875 -96.02125 68.175 -97.0625 67.75 C-106.78504746 63.70557964 -112.02695981 57.12407743 -116.03515625 47.51953125 C-119.30789926 37.94485519 -118.99556843 28.30288951 -115 19 C-109.84073325 9.21185841 -101.81195876 1.86630747 -91.22265625 -1.578125 C-80.58534543 -3.59715763 -71.26980819 -2.01892922 -61.40234375 1.90625 C-55.40744563 3.83342735 -50.96454862 3.36712712 -45.3125 0.75 C-28.70005229 -6.52961192 -16.5383905 -8.26919525 0 0 Z M-30 0 C-30 0.66 -30 1.32 -30 2 C-30.721875 2.12375 -31.44375 2.2475 -32.1875 2.375 C-35.65220044 3.14493343 -38.71281253 4.35239217 -41.87890625 5.9453125 C-47.33620843 8.65888817 -51.46848014 10.64379169 -57.625 9.078125 C-60.06980082 8.17151136 -62.49643778 7.21381065 -64.8984375 6.19921875 C-68.067584 4.75957896 -68.067584 4.75957896 -72 5 C-72 4.34 -72 3.68 -72 3 C-79.54016626 0.48661125 -90.59237635 0.84781972 -98 4 C-106.24070414 8.81342423 -109.8344794 17.19973715 -112.640625 26.01171875 C-114.22138498 34.75744517 -113.51748181 43.28754555 -109 51 C-106.880098 53.89420918 -104.69593307 56.62279794 -102 59 C-101.34 59 -100.68 59 -100 59 C-100 59.66 -100 60.32 -100 61 C-99.01 61.33 -98.02 61.66 -97 62 C-96.34 62.99 -95.68 63.98 -95 65 C-92.95297994 65.79763627 -92.95297994 65.79763627 -90.625 66.1875 C-89.46871094 66.42533203 -89.46871094 66.42533203 -88.2890625 66.66796875 C-85.72574084 67.09569929 -85.72574084 67.09569929 -82 67 C-82 67.66 -82 68.32 -82 69 C-81.34 69 -80.68 69 -80 69 C-79.814375 70.11375 -79.814375 70.11375 -79.625 71.25 C-79.14495045 73.94766216 -79.14495045 73.94766216 -77.93359375 75.9375 C-76.63465068 78.80713156 -77.35177389 81.13197453 -77.7734375 84.171875 C-78.0918183 88.14614569 -77.71957632 92.01240864 -77.40600586 95.98022461 C-76.84143699 103.86878327 -76.94910613 111.75400564 -77.03735352 119.65820312 C-77.04565186 120.69525391 -77.0539502 121.73230469 -77.0625 122.80078125 C-77.07410156 123.73059814 -77.08570313 124.66041504 -77.09765625 125.6184082 C-77.10403321 128.14972459 -77.10403321 128.14972459 -76 131 C-76.309375 131.721875 -76.61875 132.44375 -76.9375 133.1875 C-78.12712871 136.33651718 -78.12640194 138.62194085 -77.97265625 141.9375 C-78 144 -78 144 -78.4934082 146.28125 C-79.0195677 149.10501489 -79.1293954 151.69213738 -79.1328125 154.5625 C-79.13410156 155.60664062 -79.13539062 156.65078125 -79.13671875 157.7265625 C-79.13091797 159.34691406 -79.13091797 159.34691406 -79.125 161 C-79.12886719 162.08023438 -79.13273437 163.16046875 -79.13671875 164.2734375 C-79.13478516 165.83964844 -79.13478516 165.83964844 -79.1328125 167.4375 C-79.13112061 168.85869141 -79.13112061 168.85869141 -79.12939453 170.30859375 C-79.00118077 172.97543998 -78.58870678 175.39967314 -78 178 C-77.33333333 181.33333333 -76.66666667 184.66666667 -76 188 C-75.34 188 -74.68 188 -74 188 C-74.12375 188.99 -74.2475 189.98 -74.375 191 C-74.38402358 195.4125315 -72.33957906 198.03886779 -69.80078125 201.49609375 C-68.04225231 203.25812472 -68.04225231 203.25812472 -65.29296875 203.22265625 C-64.53628906 203.14917969 -63.77960938 203.07570313 -63 203 C-63 203.66 -63 204.32 -63 205 C-58.97315609 208.61027385 -54.71386733 208.44307346 -49.578125 208.28515625 C-46.30486335 207.92311367 -44.56224159 207.06402795 -42 205 C-41.43667969 204.63648438 -40.87335938 204.27296875 -40.29296875 203.8984375 C-34.50154804 200.11877346 -31.29120537 195.54630106 -29 189 C-28.65670654 188.09483643 -28.31341309 187.18967285 -27.9597168 186.25708008 C-26.93919483 182.79363985 -26.75638618 179.9897566 -26.76953125 176.38671875 C-26.77146484 175.13826172 -26.77339844 173.88980469 -26.77539062 172.60351562 C-26.78763672 171.31123047 -26.79988281 170.01894531 -26.8125 168.6875 C-26.81314453 167.40681641 -26.81378906 166.12613281 -26.81445312 164.80664062 C-26.84540274 158.12496271 -27.09738299 151.62159838 -28 145 C-28.33 145 -28.66 145 -29 145 C-30.2527717 136.61090382 -31.36011137 128.50262969 -31 120 C-31.66 120 -32.32 120 -33 120 C-32.78377739 119.19820061 -32.78377739 119.19820061 -32.56318665 118.38020325 C-31.09844647 112.49002202 -30.79756364 107.12021531 -30.98046875 101.07421875 C-31.01059579 99.20769551 -31.03986803 97.3411583 -31.06835938 95.47460938 C-31.12435452 92.56656191 -31.18826888 89.65922533 -31.26733398 86.75170898 C-31.33975384 83.92163591 -31.38101261 81.09244598 -31.41796875 78.26171875 C-31.45004929 77.39189865 -31.48212982 76.52207855 -31.5151825 75.62590027 C-31.56575012 69.62027804 -31.56575012 69.62027804 -28.73291016 66.5144043 C-26.40636646 65.22518234 -24.40145536 64.23073575 -21.85546875 63.5078125 C-21.09975586 63.28101807 -20.34404297 63.05422363 -19.56542969 62.82055664 C-18.78071289 62.59102295 -17.99599609 62.36148926 -17.1875 62.125 C-10.53323201 60.03474103 -5.01818472 58.03095364 0 53 C0.55816406 52.51273438 1.11632813 52.02546875 1.69140625 51.5234375 C7.32571703 46.01131659 8.77593189 38.62304245 9.08203125 30.94140625 C9.12335744 23.43381438 9.05784661 17.00445276 4 11 C3.01 11 2.02 11 1 11 C-1.68056948 8.71363192 -2.87410807 7.3776758 -4 4 C-6.29671092 3.00906983 -6.29671092 3.00906983 -9 2.375 C-13.92664093 1.07335907 -13.92664093 1.07335907 -15 0 C-17.53049402 -0.07313567 -20.03304837 -0.09247527 -22.5625 -0.0625 C-23.27341797 -0.05798828 -23.98433594 -0.05347656 -24.71679688 -0.04882812 C-26.47790013 -0.03700864 -28.23896036 -0.01907263 -30 0 Z " fill="#2BD300" transform="translate(1187,756)"/>
<path d="M0 0 C7.92710106 6.69917756 13.4137523 15.28824276 14.9921875 25.68359375 C15.92720545 37.10307524 14.23037194 47.78703965 6.75 56.80859375 C-0.21257963 64.23534535 -6.98652178 69.36405904 -17.0078125 71.68359375 C-17.08128906 73.18599609 -17.08128906 73.18599609 -17.15625 74.71875 C-17.23135329 76.06122134 -17.30689776 77.40366805 -17.3828125 78.74609375 C-17.45242188 80.05707031 -17.52203125 81.36804688 -17.59375 82.71875 C-18.0078125 86.68359375 -18.0078125 86.68359375 -19.1015625 90.3984375 C-20.00994701 93.69133135 -20.06781017 94.99767577 -19.1328125 98.18359375 C-17.30039148 105.95353484 -16.81034984 114.63564934 -19.0859375 122.328125 C-20.07821449 125.93984505 -19.73571348 127.12195438 -19.0078125 130.68359375 C-18.92700356 133.17859146 -18.90021089 135.67558881 -18.91015625 138.171875 C-18.9115712 138.8750737 -18.91298615 139.5782724 -18.91444397 140.30278015 C-18.92001141 142.53392919 -18.93255775 144.76497539 -18.9453125 146.99609375 C-18.95033171 148.5149725 -18.95489388 150.03385284 -18.95898438 151.55273438 C-18.96997014 155.26305387 -18.98721216 158.97331376 -19.0078125 162.68359375 C-18.3478125 162.68359375 -17.6878125 162.68359375 -17.0078125 162.68359375 C-16.78840963 167.05704994 -16.59206613 171.43079622 -16.41577148 175.80615234 C-16.3528794 177.29014824 -16.28401479 178.77390487 -16.20874023 180.25732422 C-15.65860924 191.20825388 -15.97924123 200.5601565 -22.0078125 210.12109375 C-22.5028125 210.92417969 -22.9978125 211.72726562 -23.5078125 212.5546875 C-26.94720644 217.436119 -26.94720644 217.436119 -29.8828125 218.12109375 C-32.20290388 218.57982729 -32.20290388 218.57982729 -34.3203125 220.55859375 C-39.87617057 224.9515978 -46.94022358 227.30776923 -54.0078125 227.68359375 C-57.4887577 227.01874746 -60.71601191 225.98630633 -64.0078125 224.68359375 C-64.0078125 224.02359375 -64.0078125 223.36359375 -64.0078125 222.68359375 C-64.636875 222.63203125 -65.2659375 222.58046875 -65.9140625 222.52734375 C-73.60006485 221.50871693 -77.06590101 218.44725496 -82.0078125 212.68359375 C-82.55308594 212.20019531 -83.09835937 211.71679688 -83.66015625 211.21875 C-85.40070961 209.23603269 -85.67081504 207.63737955 -86.1328125 205.05859375 C-86.49878843 202.08418726 -86.49878843 202.08418726 -88.0078125 199.68359375 C-88.04862033 197.68401011 -88.05035606 195.68314121 -88.0078125 193.68359375 C-88.6678125 193.68359375 -89.3278125 193.68359375 -90.0078125 193.68359375 C-94.50869381 180.18094981 -93.22862528 164.33723909 -93.1015625 150.32571411 C-93.04793588 144.29015327 -93.02927699 138.25450843 -93.01171875 132.21875 C-93.00581223 130.39636055 -93.00581223 130.39636055 -92.99978638 128.53715515 C-92.97628595 116.43539582 -93.20079878 104.34347605 -93.5078125 92.24609375 C-93.53191193 91.28954895 -93.55601135 90.33300415 -93.58084106 89.34747314 C-93.71416754 84.12590693 -93.85644204 78.90466693 -94.0078125 73.68359375 C-95.1836792 73.45965942 -95.1836792 73.45965942 -96.38330078 73.23120117 C-103.17350547 71.81441707 -109.39671686 67.8248421 -114.0078125 62.68359375 C-115.6953125 59.30859375 -115.6953125 59.30859375 -117.0078125 55.68359375 C-117.68338276 54.38564774 -118.37142669 53.09413553 -119.0703125 51.80859375 C-123.69705376 42.50172576 -123.77099242 33.15183989 -121.39453125 23.0859375 C-118.0736983 13.40673247 -111.26147967 3.90743464 -102.1953125 -1.00390625 C-91.86053376 -5.38394692 -81.85145428 -6.26936227 -71.0078125 -3.31640625 C-69.8940625 -2.78015625 -68.7803125 -2.24390625 -67.6328125 -1.69140625 C-60.67070438 0.94939338 -53.0487996 1.20345195 -46.1640625 -1.8515625 C-43.73327471 -3.04385841 -41.42072486 -4.34023097 -39.06640625 -5.6875 C-26.87649633 -12.17944437 -10.58672842 -7.77523461 0 0 Z M-51.12109375 2.73046875 C-57.34433548 4.78523327 -62.01633786 3.5420809 -67.9453125 1.18359375 C-77.58402731 -2.31531685 -87.85659794 -3.24531158 -97.6328125 0.43359375 C-99.11024832 1.14522534 -100.57208307 1.89118154 -102.0078125 2.68359375 C-103.5546875 3.51890625 -103.5546875 3.51890625 -105.1328125 4.37109375 C-113.520307 11.11755672 -119.25461928 18.95142966 -121.0078125 29.68359375 C-121.98604883 41.93036009 -118.85301863 52.13227402 -111.0078125 61.68359375 C-107.40609789 64.82539711 -103.57779076 68.10223422 -98.83203125 69.17578125 C-97.0078125 69.68359375 -97.0078125 69.68359375 -95.0078125 72.68359375 C-94.3478125 72.68359375 -93.6878125 72.68359375 -93.0078125 72.68359375 C-93.0078125 73.34359375 -93.0078125 74.00359375 -93.0078125 74.68359375 C-92.0178125 74.68359375 -91.0278125 74.68359375 -90.0078125 74.68359375 C-89.9845928 82.14222334 -89.96684845 89.60084507 -89.95600033 97.05950356 C-89.95079252 100.52324327 -89.94373321 103.98695816 -89.93237305 107.45068359 C-89.91938089 111.43717141 -89.9145669 115.42364934 -89.91015625 119.41015625 C-89.90499496 120.64786774 -89.89983368 121.88557922 -89.89451599 123.16079712 C-89.89440269 124.90192276 -89.89440269 124.90192276 -89.89428711 126.67822266 C-89.8920665 127.69526276 -89.88984589 128.71230286 -89.88755798 129.76016235 C-90.01293009 132.80800426 -90.46558715 135.68460047 -91.0078125 138.68359375 C-91.87000136 152.14549702 -91.06007379 165.71965686 -89.7578125 179.12109375 C-89.64856445 180.32193604 -89.53931641 181.52277832 -89.42675781 182.76000977 C-88.48453199 191.57822956 -86.4749857 200.46692513 -81.0078125 207.68359375 C-79.35248627 208.70225604 -77.68521112 209.70170188 -76.0078125 210.68359375 C-75.4715625 211.48796875 -74.9353125 212.29234375 -74.3828125 213.12109375 C-70.04859849 217.79748255 -64.16331934 219.32227617 -57.9375 220.03515625 C-47.03808024 220.34178954 -37.30564006 216.94419286 -29.0078125 209.68359375 C-28.12571044 207.06524236 -28.12571044 207.06524236 -28.0078125 204.68359375 C-27.3478125 204.68359375 -26.6878125 204.68359375 -26.0078125 204.68359375 C-25.34873832 203.50339115 -24.7063177 202.31388641 -24.0703125 201.12109375 C-23.71066406 200.45980469 -23.35101562 199.79851562 -22.98046875 199.1171875 C-20.32449971 192.47193163 -20.85154903 185.09781059 -20.8828125 178.05859375 C-20.88547119 176.99495605 -20.88812988 175.93131836 -20.89086914 174.83544922 C-20.30777898 162.42960106 -20.30777898 162.42960106 -23.0078125 150.68359375 C-24.60850993 142.49316383 -25.15679836 134.41686305 -25.09765625 126.09765625 C-25.09435303 125.19557938 -25.0910498 124.2935025 -25.08764648 123.36408997 C-25.02901873 112.69721636 -24.7726413 102.03445187 -24.5078125 91.37109375 C-24.45940733 89.34701065 -24.41122933 87.3229221 -24.36328125 85.29882812 C-24.24780682 80.42700169 -24.12773193 75.55532072 -24.0078125 70.68359375 C-18.3978125 68.70359375 -12.7878125 66.72359375 -7.0078125 64.68359375 C-7.0078125 64.02359375 -7.0078125 63.36359375 -7.0078125 62.68359375 C-6.1621875 62.51859375 -5.3165625 62.35359375 -4.4453125 62.18359375 C1.80605438 59.45572457 5.84542058 53.61749708 8.9921875 47.68359375 C12.93303807 33.54289465 12.08895209 21.3986303 4.9921875 8.68359375 C4.0021875 8.68359375 3.0121875 8.68359375 1.9921875 8.68359375 C1.8890625 8.04421875 1.7859375 7.40484375 1.6796875 6.74609375 C1.4528125 6.06546875 1.2259375 5.38484375 0.9921875 4.68359375 C0.0021875 4.35359375 -0.9878125 4.02359375 -2.0078125 3.68359375 C-2.5028125 2.19859375 -2.5028125 2.19859375 -3.0078125 0.68359375 C-5.35750266 -0.4996476 -5.35750266 -0.4996476 -8.1953125 -1.37890625 C-9.19820312 -1.71535156 -10.20109375 -2.05179688 -11.234375 -2.3984375 C-12.60722656 -2.85283203 -12.60722656 -2.85283203 -14.0078125 -3.31640625 C-15.0184375 -3.72890625 -16.0290625 -4.14140625 -17.0703125 -4.56640625 C-29.26701293 -7.68045742 -40.20525133 -2.3240078 -51.12109375 2.73046875 Z " fill="#C23C00" transform="translate(1190.0078125,755.31640625)"/>
<path d="M0 0 C0.99 0 1.98 0 3 0 C3.23460937 0.59554687 3.46921875 1.19109375 3.7109375 1.8046875 C6.41055599 6.4022196 12.29164766 9.13463699 17.26171875 10.72265625 C19.17281667 11.15583845 21.08632618 11.57834306 23 12 C25.875 13 25.875 13 28 15 C30.41668133 22.34458988 30.27934702 30.07771014 30.23046875 37.71875 C30.22978142 39.48829041 30.22978142 39.48829041 30.2290802 41.2935791 C30.22607687 43.76766984 30.2182487 46.24175902 30.20581055 48.71582031 C30.18742092 52.51634343 30.18530206 56.31662429 30.18554688 60.1171875 C30.18063594 62.52604379 30.17480949 64.93489842 30.16796875 67.34375 C30.16685593 68.48324097 30.1657431 69.62273193 30.16459656 70.79675293 C30.15821671 71.84544556 30.15183685 72.89413818 30.14526367 73.97460938 C30.13954597 75.36166077 30.13954597 75.36166077 30.13371277 76.7767334 C30 79 30 79 29 81 C28.78568036 85.20570784 28.81421117 89.41589026 28.81469727 93.62646484 C28.8125513 95.70041725 28.7945148 97.77380099 28.77539062 99.84765625 C28.70492535 115.99266589 29.74757333 135.37532618 41 148 C46.194275 153.23661964 51.01577998 155.0685985 58.3125 155.3125 C66.68396701 155.11939968 72.56088316 153.0649575 78.58984375 147.20703125 C80 146 80 146 82 146 C82.46277164 144.52221589 82.91991034 143.04266785 83.375 141.5625 C83.63023438 140.73878906 83.88546875 139.91507813 84.1484375 139.06640625 C84.42945313 138.05449219 84.71046875 137.04257812 85 136 C85.17861572 135.36102783 85.35723145 134.72205566 85.54125977 134.0637207 C87.15334438 127.70075744 87.26481348 121.6015925 87.1875 115.0625 C87.18685547 114.06154297 87.18621094 113.06058594 87.18554688 112.02929688 C87.15629089 106.83798536 86.99497702 101.67868271 86.64744568 96.49865723 C85.69533974 81.98511613 85.70460315 67.43863177 85.64990234 52.8996582 C85.63639633 49.64775509 85.6081875 46.39645493 85.56787109 43.14477539 C85.51872156 39.17525417 85.49381227 35.20629121 85.48667526 31.23647881 C85.47996574 29.73449964 85.46475115 28.23253298 85.44078445 26.73073006 C85.40931572 24.64670969 85.40906122 22.56490632 85.41650391 20.48071289 C85.40841705 19.29812393 85.4003302 18.11553497 85.39199829 16.89710999 C86 14 86 14 88.33480835 12.17015076 C91.39266183 10.82760206 94.43254854 9.73342183 97.625 8.75 C98.75164062 8.39421875 99.87828125 8.0384375 101.0390625 7.671875 C104 7 104 7 107 8 C101.39 9.98 95.78 11.96 90 14 C89.85521938 19.88171273 89.7120868 25.76342489 89.57275391 31.64526367 C89.52514992 33.63584526 89.47668188 35.62640642 89.42724609 37.61694336 C89.16463183 48.21530471 88.94897797 58.8122407 88.91015625 69.4140625 C88.90419434 70.25269333 88.89823242 71.09132416 88.89208984 71.95536804 C88.72623166 84.34497213 88.72623166 84.34497213 92 96 C93.20836171 104.38394172 93.10387678 112.9244338 93.125 121.375 C93.13188843 122.92598389 93.13188843 122.92598389 93.13891602 124.50830078 C93.11038325 138.60348887 93.11038325 138.60348887 89.9375 144.4375 C89.57527344 145.11683594 89.21304687 145.79617188 88.83984375 146.49609375 C88.56269531 146.99238281 88.28554687 147.48867188 88 148 C87.34 148 86.68 148 86 148 C85.96132812 148.73863281 85.92265625 149.47726562 85.8828125 150.23828125 C84.61089276 154.21725141 82.42377035 155.09784821 78.875 157.1875 C77.75867187 157.86167969 76.64234375 158.53585937 75.4921875 159.23046875 C67.23801066 163.41295433 58.69310508 164.58671469 49.734375 162.08984375 C43.48782805 159.6973855 39.85216681 157.41710958 36 152 C35.29875 151.649375 34.5975 151.29875 33.875 150.9375 C30.0672187 149.03360935 28.89661063 144.96599019 27.515625 141.16015625 C25.52371535 135.05904946 24.93157673 128.86419354 24.3125 122.5 C24.18584961 121.23857178 24.05919922 119.97714355 23.92871094 118.67749023 C21.3627557 91.05543168 21.3627557 91.05543168 23.50297546 79.21809387 C23.98759509 76.08031828 24.1204506 73.16637337 24.11352539 69.99462891 C24.11341209 68.25350327 24.11341209 68.25350327 24.11329651 66.47720337 C24.10813522 65.23949188 24.10297394 64.0017804 24.09765625 62.7265625 C24.0962413 61.44768158 24.09482635 60.16880066 24.09336853 58.85116577 C24.08873022 55.46788664 24.07976081 52.08467614 24.06866455 48.70141602 C24.05839515 45.24235626 24.05385911 41.78328939 24.04882812 38.32421875 C24.03781609 31.54946034 24.02109064 24.77473413 24 18 C23.01 18 22.02 18 21 18 C21 17.34 21 16.68 21 16 C20.01 15.67 19.02 15.34 18 15 C17.67 14.34 17.34 13.68 17 13 C15.34920925 12.32620786 13.69832278 11.65264894 12.046875 10.98046875 C6.87297731 8.50213226 2.28276495 5.36507702 0 0 Z " fill="#8D7100" transform="translate(1076,812)"/>
<path d="M0 0 C0.495 1.485 0.495 1.485 1 3 C3.00016466 4.20882096 3.00016466 4.20882096 5 5 C5 5.99 5 6.98 5 8 C5.60328125 8.05800781 6.2065625 8.11601563 6.828125 8.17578125 C9 9 9 9 10.484375 11.23046875 C15.8522047 23.77197209 15.11527402 37.11673543 11 50 C9.02734375 52.7734375 9.02734375 52.7734375 7 55 C6.278125 55.845625 5.55625 56.69125 4.8125 57.5625 C-2.49539061 63.8960052 -12.93663275 66.07668371 -22 69 C-23.485 69.495 -23.485 69.495 -25 70 C-24.67 95.74 -24.34 121.48 -24 148 C-24.33 148 -24.66 148 -25 148 C-25.33 143.71 -25.66 139.42 -26 135 C-26.66 135 -27.32 135 -28 135 C-29.02390932 131.6008439 -29.15071739 128.45953995 -29.19287109 124.91796875 C-29.20893402 123.68989502 -29.22499695 122.46182129 -29.24154663 121.1965332 C-29.25303063 119.86019587 -29.26363976 118.52385076 -29.2734375 117.1875 C-29.27876118 116.51214203 -29.28408485 115.83678406 -29.28956985 115.14096069 C-29.31623252 111.57022235 -29.33563429 107.99951823 -29.35009766 104.42871094 C-29.36346532 101.47592384 -29.39137732 98.5238232 -29.43212891 95.57128906 C-29.48140531 92.00043937 -29.50621076 88.43021448 -29.51332474 84.85903931 C-29.52003918 83.50022549 -29.53526674 82.14142574 -29.55921555 80.7828064 C-29.59081334 78.8827935 -29.58790612 76.98230175 -29.58349609 75.08203125 C-29.59158295 74.00155518 -29.5996698 72.9210791 -29.60800171 71.80786133 C-29 69 -29 69 -26.61949158 66.67120361 C-23.93054206 64.95568668 -22.03997514 64.27067058 -18.91796875 63.734375 C-17.98662109 63.56679688 -17.05527344 63.39921875 -16.09570312 63.2265625 C-15.13599609 63.06929687 -14.17628906 62.91203125 -13.1875 62.75 C-12.20845703 62.57726562 -11.22941406 62.40453125 -10.22070312 62.2265625 C-7.81579626 61.80423739 -5.4093753 61.39588732 -3 61 C-3 60.34 -3 59.68 -3 59 C-1 57.66666667 1 56.33333333 3 55 C6.10362839 51.89637161 7.08276535 48.12997452 8.3515625 44.0234375 C9 42 9 42 10 40 C10.87756433 30.5830597 9.74316259 19.7993566 4 12 C3.01 12 2.02 12 1 12 C0.505 10.515 0.505 10.515 0 9 C-2.00016466 7.79117904 -2.00016466 7.79117904 -4 7 C-4 6.01 -4 5.02 -4 4 C-4.886875 3.87625 -5.77375 3.7525 -6.6875 3.625 C-10 3 -10 3 -12.21875 2 C-15.72917996 0.73782293 -19.12306217 0.544467 -22.8125 0.375 C-23.50537109 0.33632813 -24.19824219 0.29765625 -24.91210938 0.2578125 C-26.60767015 0.16426432 -28.30379712 0.08107636 -30 0 C-30 0.66 -30 1.32 -30 2 C-30.67546875 2.26554688 -31.3509375 2.53109375 -32.046875 2.8046875 C-33.38492187 3.33449219 -33.38492187 3.33449219 -34.75 3.875 C-35.63171875 4.22304688 -36.5134375 4.57109375 -37.421875 4.9296875 C-39.93359383 5.93168087 -39.93359383 5.93168087 -42.0078125 7.03125 C-44.33055892 8.16074238 -46.64903488 8.89329687 -49.125 9.625 C-49.99382812 9.88539063 -50.86265625 10.14578125 -51.7578125 10.4140625 C-54 11 -54 11 -56 11 C-56 10.34 -56 9.68 -56 9 C-56.56847656 8.87882813 -57.13695312 8.75765625 -57.72265625 8.6328125 C-62.54245464 7.58677946 -67.2732934 6.40795516 -72 5 C-72 4.34 -72 3.68 -72 3 C-89.38913539 1.98915472 -89.38913539 1.98915472 -104.14453125 9.84765625 C-106.84974468 12.98570383 -108.82784191 16.41196067 -110.7734375 20.05859375 C-111.17820312 20.69925781 -111.58296875 21.33992187 -112 22 C-112.66 22 -113.32 22 -114 22 C-114.08837761 25.62484173 -114.14084706 29.24940017 -114.1875 32.875 C-114.21263672 33.88820313 -114.23777344 34.90140625 -114.26367188 35.9453125 C-114.32970578 42.81283888 -113.3779117 48.55345546 -111 55 C-116.00569038 50.38581613 -117.6743012 44.0774985 -118.203125 37.45703125 C-118.40944478 25.81715683 -115.22712578 16.52365558 -107.11328125 8.0234375 C-98.08745841 -0.31081935 -89.52047835 -2.55227221 -77.390625 -2.3671875 C-71.65513717 -2.0699988 -66.69891269 -0.20067245 -61.40234375 1.90625 C-55.40744563 3.83342735 -50.96454862 3.36712712 -45.3125 0.75 C-28.70005229 -6.52961192 -16.5383905 -8.26919525 0 0 Z " fill="#3AC400" transform="translate(1187,756)"/>
<path d="M0 0 C7.92710106 6.69917756 13.4137523 15.28824276 14.9921875 25.68359375 C15.94306415 37.29675943 14.13532497 47.77907898 6.5703125 56.9296875 C6.04953125 57.50847656 5.52875 58.08726562 4.9921875 58.68359375 C4.47140625 59.27269531 3.950625 59.86179687 3.4140625 60.46875 C0.68756277 63.38114744 -1.15408133 64.88748475 -5.0078125 65.68359375 C-7.56447674 66.49946449 -10.11780972 67.32416427 -12.66796875 68.16015625 C-15.0078125 68.68359375 -15.0078125 68.68359375 -18.0078125 67.68359375 C-16.55074524 67.17991618 -15.09211154 66.68076819 -13.6328125 66.18359375 C-12.82070312 65.90515625 -12.00859375 65.62671875 -11.171875 65.33984375 C-9.0078125 64.68359375 -9.0078125 64.68359375 -7.0078125 64.68359375 C-7.0078125 64.02359375 -7.0078125 63.36359375 -7.0078125 62.68359375 C-4.0078125 60.68359375 -4.0078125 60.68359375 -1.0078125 60.68359375 C-0.7396875 60.04421875 -0.4715625 59.40484375 -0.1953125 58.74609375 C0.9921875 56.68359375 0.9921875 56.68359375 3.9921875 55.68359375 C5.11734835 53.85074932 5.11734835 53.85074932 5.9921875 51.68359375 C6.31832031 51.08933594 6.64445312 50.49507812 6.98046875 49.8828125 C11.13108991 40.86041978 11.69395965 27.58088878 8.9765625 18.1640625 C7.80205712 15.18180938 6.68479267 12.40606573 4.9921875 9.68359375 C3.5071875 9.18859375 3.5071875 9.18859375 1.9921875 8.68359375 C1.4971875 7.19859375 1.4971875 7.19859375 0.9921875 5.68359375 C-1.00797716 4.47477279 -1.00797716 4.47477279 -3.0078125 3.68359375 C-3.0078125 2.69359375 -3.0078125 1.70359375 -3.0078125 0.68359375 C-4.09449219 0.39355469 -4.09449219 0.39355469 -5.203125 0.09765625 C-6.16992188 -0.16273438 -7.13671875 -0.423125 -8.1328125 -0.69140625 C-9.65068359 -1.09939453 -9.65068359 -1.09939453 -11.19921875 -1.515625 C-14.0078125 -2.31640625 -14.0078125 -2.31640625 -17.0703125 -3.50390625 C-29.16115723 -6.84818245 -40.29818604 -1.28097527 -51.12109375 3.73046875 C-57.34433548 5.78523327 -62.01633786 4.5420809 -67.9453125 2.18359375 C-77.58402731 -1.31531685 -87.85659794 -2.24531158 -97.6328125 1.43359375 C-99.11074796 2.14418709 -100.57260556 2.8902356 -102.0078125 3.68359375 C-103.0596875 4.26109375 -104.1115625 4.83859375 -105.1953125 5.43359375 C-113.18836064 11.82803226 -118.35656477 19.49570679 -120.0078125 29.68359375 C-120.98763884 41.95026582 -117.83309683 52.09762044 -110.0078125 61.68359375 C-105.732978 65.35087472 -101.24987812 67.68793017 -96.0078125 69.68359375 C-96.0078125 70.01359375 -96.0078125 70.34359375 -96.0078125 70.68359375 C-103.41593776 70.68359375 -107.907016 66.77620278 -113.0078125 61.68359375 C-120.2047197 52.88587916 -123.46496244 43.41094636 -122.9453125 32.05859375 C-121.60106447 20.50903417 -116.33322932 10.78699945 -108.0078125 2.68359375 C-98.8579235 -3.99470177 -87.75688239 -6.25174438 -76.6328125 -4.62890625 C-73.25078541 -3.95514304 -70.7630053 -3.19853612 -67.6328125 -1.69140625 C-60.67070438 0.94939338 -53.0487996 1.20345195 -46.1640625 -1.8515625 C-43.73327471 -3.04385841 -41.42072486 -4.34023097 -39.06640625 -5.6875 C-26.87649633 -12.17944437 -10.58672842 -7.77523461 0 0 Z " fill="#D32B00" transform="translate(1190.0078125,755.31640625)"/>
<path d="M0 0 C3.99927162 0.57132452 6.95295469 1.28236499 10 4 C12.46631939 11.30895742 12.27919095 19.10210717 12.23046875 26.71875 C12.22978142 28.48829041 12.22978142 28.48829041 12.2290802 30.2935791 C12.22607687 32.76766984 12.2182487 35.24175902 12.20581055 37.71582031 C12.18742092 41.51634343 12.18530206 45.31662429 12.18554688 49.1171875 C12.18063594 51.52604379 12.17480949 53.93489842 12.16796875 56.34375 C12.16685593 57.48324097 12.1657431 58.62273193 12.16459656 59.79675293 C12.15821671 60.84544556 12.15183685 61.89413818 12.14526367 62.97460938 C12.14145187 63.8993103 12.13764008 64.82401123 12.13371277 65.7767334 C12 68 12 68 11 70 C10.78568036 74.20570784 10.81421117 78.41589026 10.81469727 82.62646484 C10.8125513 84.70041725 10.7945148 86.77380099 10.77539062 88.84765625 C10.70492535 104.99266589 11.74757333 124.37532618 23 137 C28.194275 142.23661964 33.01577998 144.0685985 40.3125 144.3125 C48.68396701 144.11939968 54.56088316 142.0649575 60.58984375 136.20703125 C62 135 62 135 64 135 C64.46277164 133.52221589 64.91991034 132.04266785 65.375 130.5625 C65.63023438 129.73878906 65.88546875 128.91507813 66.1484375 128.06640625 C66.42945313 127.05449219 66.71046875 126.04257812 67 125 C67.3609375 123.7728125 67.721875 122.545625 68.09375 121.28125 C69.75392657 113.65446568 69.20764443 105.69750039 69.125 97.9375 C69.11495163 96.29232315 69.10582906 94.64714036 69.09765625 93.00195312 C69.07578623 89.00115385 69.04135854 85.00064334 69 81 C69.33 81 69.66 81 70 81 C71.78234888 89.89583055 72.24283434 98.63699323 72.3125 107.6875 C72.32990234 108.73156006 72.34730469 109.77562012 72.36523438 110.85131836 C72.35851325 121.51185732 70.65367048 131.17129756 63 139 C54.52180658 146.66117952 49.8587704 148.3367321 38.48046875 148.20703125 C30.95935359 147.7596473 26.57903348 145.32513115 21.46484375 139.83984375 C19.53272417 137.41310156 18.27968268 134.8153019 17 132 C16.52175781 131.53980469 16.04351563 131.07960938 15.55078125 130.60546875 C6.99891663 121.75202704 7.68829201 104.78941759 7.79418945 93.50927734 C7.81248042 91.50214864 7.81469785 89.49548494 7.81445312 87.48828125 C7.8400051 81.7362479 7.97276062 76.11094753 8.50048828 70.38452148 C9.41865388 59.80795908 9.18191335 49.19575896 9.08764648 38.58911133 C9.06583982 35.89172485 9.06641175 33.19569129 9.08569336 30.49829102 C9.11341753 26.5828141 9.07659264 22.66929083 9.03515625 18.75390625 C9.0514357 17.54867813 9.06771515 16.34345001 9.08448792 15.10169983 C9.15713688 9.05241776 9.15713688 9.05241776 6.15011597 4.13668823 C4.14332978 2.89418134 2.16051128 1.93680576 0 1 C0 0.67 0 0.34 0 0 Z " fill="#5BA300" transform="translate(1094,823)"/>
<path d="M0 0 C0 0.99 0 1.98 0 3 C-1.41478135 3.64995297 -2.83191487 4.29478722 -4.25 4.9375 C-5.03890625 5.29714844 -5.8278125 5.65679688 -6.640625 6.02734375 C-8.75823698 6.90033279 -10.76669362 7.51338508 -13 8 C-13.04898437 9.00160156 -13.09796875 10.00320313 -13.1484375 11.03515625 C-13.22354079 12.37762759 -13.29908526 13.7200743 -13.375 15.0625 C-13.44460938 16.37347656 -13.51421875 17.68445313 -13.5859375 19.03515625 C-14 23 -14 23 -15.09375 26.71484375 C-16.00213451 30.0077376 -16.05999767 31.31408202 -15.125 34.5 C-13.29257898 42.26994109 -12.80253734 50.95205559 -15.078125 58.64453125 C-16.07040199 62.2562513 -15.72790098 63.43836063 -15 67 C-14.91919106 69.49499771 -14.89239839 71.99199506 -14.90234375 74.48828125 C-14.9037587 75.19147995 -14.90517365 75.89467865 -14.90663147 76.6191864 C-14.91219891 78.85033544 -14.92474525 81.08138164 -14.9375 83.3125 C-14.94251921 84.83137875 -14.94708138 86.35025909 -14.95117188 87.86914062 C-14.96215764 91.57946012 -14.97939966 95.28972001 -15 99 C-14.34 99 -13.68 99 -13 99 C-12.78059713 103.37345619 -12.58425363 107.74720247 -12.40795898 112.12255859 C-12.3450669 113.60655449 -12.27620229 115.09031112 -12.20092773 116.57373047 C-11.65079674 127.52466013 -11.97142873 136.87656275 -18 146.4375 C-18.495 147.24058594 -18.99 148.04367187 -19.5 148.87109375 C-22.93939394 153.75252525 -22.93939394 153.75252525 -25.875 154.4375 C-28.19509138 154.89623354 -28.19509138 154.89623354 -30.3125 156.875 C-35.86835807 161.26800405 -42.93241108 163.62417548 -50 164 C-53.4809452 163.33515371 -56.70819941 162.30271258 -60 161 C-60 160.67 -60 160.34 -60 160 C-52.74 159.67 -45.48 159.34 -38 159 C-38 158.34 -38 157.68 -38 157 C-36.824375 156.67 -35.64875 156.34 -34.4375 156 C-26.87186335 153.18300763 -22.47977844 145.95955688 -19 139 C-18.34 139 -17.68 139 -17 139 C-15.77590469 132.45582161 -15.8086975 126.07751747 -15.8125 119.4375 C-15.81258057 118.1287793 -15.81266113 116.82005859 -15.81274414 115.47167969 C-14.69900506 93.00458467 -14.69900506 93.00458467 -19 72 C-19.09527879 70.39889954 -19.1279496 68.79387365 -19.12939453 67.18994141 C-19.13254669 66.18774567 -19.13569885 65.18554993 -19.13894653 64.15298462 C-19.1369223 63.06351532 -19.13489807 61.97404602 -19.1328125 60.8515625 C-19.13376923 59.72865814 -19.13472595 58.60575378 -19.13571167 57.44882202 C-19.13639366 55.06304875 -19.1345381 52.67727364 -19.13037109 50.29150391 C-19.1250729 46.67476096 -19.13028943 43.05814505 -19.13671875 39.44140625 C-19.136057 37.1197914 -19.13477383 34.79817662 -19.1328125 32.4765625 C-19.13483673 31.40733551 -19.13686096 30.33810852 -19.13894653 29.23648071 C-19.11722491 22.11310821 -18.6941312 15.0890437 -18 8 C-17.01 7.67 -16.02 7.34 -15 7 C-15 6.34 -15 5.68 -15 5 C-14.00097656 4.72285156 -13.00195312 4.44570313 -11.97265625 4.16015625 C-10.66922209 3.79444451 -9.36583931 3.42854962 -8.0625 3.0625 C-7.40314453 2.88009766 -6.74378906 2.69769531 -6.06445312 2.50976562 C-2.76178827 1.77403899 -2.76178827 1.77403899 0 0 Z " fill="#DE2000" transform="translate(1186,819)"/>
<path d="M0 0 C0.99 0.495 0.99 0.495 2 1 C3.68895187 7.41801711 4.18462294 15.14613565 1.625 21.3125 C1.08875 22.199375 0.5525 23.08625 0 24 C-0.28875 24.99 -0.5775 25.98 -0.875 27 C-2.33931309 30.90483492 -4.08029343 33.01077661 -7 36 C-9.3125 36.875 -9.3125 36.875 -11 37 C-11 37.66 -11 38.32 -11 39 C-15.91222906 41.24421445 -21.0036616 41.9622692 -26.29296875 42.76757812 C-30.14905856 43.41986995 -32.50621039 43.91286045 -35 47 C-35.66 47 -36.32 47 -37 47 C-37.02325756 55.3195075 -37.04098308 63.63900122 -37.05181217 71.95853329 C-37.05701181 75.82238355 -37.06405592 79.68621144 -37.07543945 83.55004883 C-37.08637273 87.28479289 -37.09229878 91.01951553 -37.09487724 94.75427437 C-37.09671279 96.1730845 -37.10029684 97.59189358 -37.10573006 99.0106945 C-37.13297157 106.42500755 -37.02061697 113.65085151 -36 121 C-35.34 121 -34.68 121 -34 121 C-33.35628769 131.5982634 -32.87244151 142.19430018 -32.75 152.8125 C-32.7180957 154.17979248 -32.7180957 154.17979248 -32.68554688 155.57470703 C-32.65619227 161.22651684 -33.38036121 164.98055224 -36 170 C-36.72896484 171.42505859 -36.72896484 171.42505859 -37.47265625 172.87890625 C-41.44074827 179.57688959 -45.46268771 184.42395656 -53 187 C-57.06054612 187.43625702 -60.9378622 187.37689938 -65 187 C-62 185 -62 185 -58.625 185.0625 C-54.56887177 184.99256675 -53.2367555 184.32382446 -50 182 C-48.989375 181.401875 -47.97875 180.80375 -46.9375 180.1875 C-42.27287192 176.71384079 -39.8962579 172.41787971 -38 167 C-37.65670654 166.09628662 -37.31341309 165.19257324 -36.9597168 164.26147461 C-35.93390545 160.77538615 -35.75644764 157.94313142 -35.76953125 154.31640625 C-35.77243164 152.43018555 -35.77243164 152.43018555 -35.77539062 150.50585938 C-35.78763672 149.20455078 -35.79988281 147.90324219 -35.8125 146.5625 C-35.81314453 145.26505859 -35.81378906 143.96761719 -35.81445312 142.63085938 C-35.84206742 136.63855674 -36.05593976 130.92850997 -37 125 C-37.33 125 -37.66 125 -38 125 C-39.29126968 115.80103749 -40.46944783 107.25752135 -39 98 C-39.66 98 -40.32 98 -41 98 C-40.74899536 96.07849121 -40.74899536 96.07849121 -40.49291992 94.11816406 C-39.93544285 89.08324391 -39.97169925 84.1659006 -40.11328125 79.109375 C-40.14537571 77.24742101 -40.17592985 75.38543994 -40.20507812 73.5234375 C-40.25461926 70.62392542 -40.31320349 67.72586756 -40.39770508 64.82714844 C-40.47643414 62.0043191 -40.51684842 59.18305188 -40.55078125 56.359375 C-40.58488602 55.49471619 -40.61899078 54.63005737 -40.65412903 53.73919678 C-40.68057801 47.90855416 -40.68057801 47.90855416 -38.7756958 45.36558533 C-36.07256525 43.00153411 -33.20267346 41.36908193 -29.7578125 40.41015625 C-29.0052417 40.18650391 -28.2526709 39.96285156 -27.47729492 39.73242188 C-26.7010376 39.51134766 -25.92478027 39.29027344 -25.125 39.0625 C-18.48729298 37.00719311 -13.00296893 35.0162747 -8 30 C-7.071875 29.154375 -6.14375 28.30875 -5.1875 27.4375 C0.51791869 20.07442588 0.48021037 8.87499899 0 0 Z " fill="#1EE000" transform="translate(1195,778)"/>
<path d="M0 0 C0 0.66 0 1.32 0 2 C-0.66 2.33 -1.32 2.66 -2 3 C-3.43202656 10.98935253 -3.14813303 19.38404517 -3.1328125 27.4765625 C-3.13376923 28.60903412 -3.13472595 29.74150574 -3.13571167 30.90829468 C-3.13638664 33.27626604 -3.13458053 35.64423932 -3.13037109 38.01220703 C-3.12496267 41.6501065 -3.13036477 45.28788531 -3.13671875 48.92578125 C-3.13605883 51.23437527 -3.13477945 53.54296922 -3.1328125 55.8515625 C-3.13483673 56.9410318 -3.13686096 58.0305011 -3.13894653 59.15298462 C-3.13579437 60.15518036 -3.13264221 61.1573761 -3.12939453 62.18994141 C-3.12859894 63.07308014 -3.12780334 63.95621887 -3.12698364 64.86611938 C-3.13719316 67.053357 -3.13719316 67.053357 -2 69 C-0.15168259 84.0113141 0.19696585 99.32369703 0.25 114.4375 C0.259104 115.70368164 0.26820801 116.96986328 0.27758789 118.27441406 C0.27364014 119.46131836 0.26969238 120.64822266 0.265625 121.87109375 C0.26336914 122.91193115 0.26111328 123.95276855 0.25878906 125.02514648 C-0.02342018 128.26922158 -0.85783462 130.96055841 -2 134 C-2.66 134 -3.32 134 -4 134 C-4.20625 134.845625 -4.4125 135.69125 -4.625 136.5625 C-6.30603806 140.76509516 -8.66452761 143.93644112 -12 147 C-12.66 147 -13.32 147 -14 147 C-14.185625 147.61875 -14.37125 148.2375 -14.5625 148.875 C-16.34298335 151.50701887 -17.94418924 151.82906636 -20.94262695 152.60742188 C-24.56207742 153.29806817 -28.13687501 153.33860972 -31.8125 153.3125 C-32.60205078 153.30903564 -33.39160156 153.30557129 -34.20507812 153.30200195 C-39.99995574 153.19427056 -45.80494444 152.81785379 -51 150 C-51.66 149.01 -52.32 148.02 -53 147 C-51.54096742 147.30921884 -50.08279278 147.62248799 -48.625 147.9375 C-47.81289062 148.11152344 -47.00078125 148.28554688 -46.1640625 148.46484375 C-44 149 -44 149 -42 150 C-30.70943049 150.91592764 -22.95396109 148.80789772 -13.84765625 142.20703125 C-12 141 -12 141 -10 141 C-9.67 139.35 -9.34 137.7 -9 136 C-8.34 136 -7.68 136 -7 136 C-6.690625 134.865625 -6.38125 133.73125 -6.0625 132.5625 C-5 129 -5 129 -4 128 C-2.78942688 121.81073181 -2.84707031 115.66358998 -2.875 109.375 C-2.87765869 108.3113623 -2.88031738 107.24772461 -2.88305664 106.15185547 C-2.29996648 93.74600731 -2.29996648 93.74600731 -5 82 C-6.60069743 73.80957008 -7.14898586 65.7332693 -7.08984375 57.4140625 C-7.08654053 56.51198563 -7.0832373 55.60990875 -7.07983398 54.68049622 C-7.02120623 44.01362261 -6.7648288 33.35085812 -6.5 22.6875 C-6.45159483 20.6634169 -6.40341683 18.63932835 -6.35546875 16.61523438 C-6.23958175 11.74342321 -6.12067707 6.87169477 -6 2 C-2.25 0 -2.25 0 0 0 Z " fill="#C53900" transform="translate(1171,824)"/>
<path d="M0 0 C-5.61 1.98 -11.22 3.96 -17 6 C-17.14478062 11.88171273 -17.2879132 17.76342489 -17.42724609 23.64526367 C-17.47485008 25.63584526 -17.52331812 27.62640642 -17.57275391 29.61694336 C-17.74110026 36.41092118 -17.88262825 43.20495218 -18 50 C-18.01772461 50.93475159 -18.03544922 51.86950317 -18.05371094 52.83258057 C-18.22498949 62.79448214 -17.98637056 72.26542253 -16.46289062 82.13574219 C-15.61173701 89.24125877 -15.70411285 96.3715857 -15.73925781 103.51953125 C-15.75012977 106.15647611 -15.73921663 108.79276117 -15.7265625 111.4296875 C-15.72788182 113.12239732 -15.73043949 114.81510674 -15.734375 116.5078125 C-15.73032654 117.28802765 -15.72627808 118.0682428 -15.72210693 118.87210083 C-15.75782239 123.01914425 -16.13733927 126.27005426 -18 130 C-19.09211954 126.72364139 -18.85220162 126.1563291 -18 123 C-17.7456786 119.21215244 -17.76846965 115.42051211 -17.75 111.625 C-17.7190625 110.14 -17.7190625 110.14 -17.6875 108.625 C-17.65781599 102.64367252 -18.1174726 96.93080684 -19.06658936 91.03886414 C-21.52065773 75.59786235 -21.52802818 60.18973365 -21.50097656 44.59790039 C-21.49497886 40.56051323 -21.52618215 36.52428698 -21.56609344 32.48712635 C-21.59185961 29.35159335 -21.59486039 26.21634899 -21.59120178 23.08072472 C-21.59289114 21.58994212 -21.60251605 20.09914594 -21.62034607 18.60846901 C-21.6424099 16.54389475 -21.63291793 14.48179967 -21.61523438 12.41723633 C-21.61728882 11.24671219 -21.61934326 10.07618805 -21.62145996 8.87019348 C-21 6 -21 6 -18.66320801 4.17411804 C-15.60669264 2.82660413 -12.56816903 1.73364287 -9.375 0.75 C-8.24835938 0.39421875 -7.12171875 0.0384375 -5.9609375 -0.328125 C-3 -1 -3 -1 0 0 Z " fill="#7B8300" transform="translate(1183,820)"/>
<path d="M0 0 C0.66 0 1.32 0 2 0 C2.94860616 8.05093102 3.3245418 16.08809888 3.5625 24.1875 C3.58434357 24.88587982 3.60618713 25.58425964 3.62869263 26.30380249 C3.94666524 36.77919337 4.02517873 47.24661413 3.9921875 57.7265625 C3.98889938 58.92507339 3.98561127 60.12358429 3.98222351 61.3584137 C3.96296022 67.34555048 3.92918513 73.33216871 3.87524414 79.3190918 C3.78614157 93.01204094 4.38050846 106.40008589 6 120 C6.66 120 7.32 120 8 120 C8.33 123.96 8.66 127.92 9 132 C7 128 7 128 7 124 C6.34 124 5.68 124 5 124 C3.74158054 117.25846717 2.73595544 110.86515862 3 104 C2.34 104 1.68 104 1 104 C0.93941406 102.69546875 0.87882812 101.3909375 0.81640625 100.046875 C0.73216687 98.28123106 0.64750259 96.51560736 0.5625 94.75 C0.51883301 93.83138184 0.47516602 92.91276367 0.43017578 91.96630859 C0.19257864 87.16786108 -0.12361301 82.40445519 -0.625 77.625 C-1.54834441 67.06610987 -0.26332244 57.05677984 3 47 C2.34 47 1.68 47 1 47 C0.16950251 41.18651758 -0.10913878 35.48836302 -0.125 29.625 C-0.12951172 28.92310547 -0.13402344 28.22121094 -0.13867188 27.49804688 C-0.12967149 24.39291297 0.01066712 21.96799864 1 19 C1.22817012 12.61123677 0.65394783 6.35263608 0 0 Z " fill="#E81600" transform="translate(1094,829)"/>
<path d="M0 0 C6.84065941 2.32505086 12.58185706 2.61271191 19.63525391 0.79248047 C18.63525391 2.79248047 18.63525391 2.79248047 16.01025391 3.91748047 C9.5278435 5.59810539 4.84214683 4.73665887 -1.30224609 2.29248047 C-10.9409609 -1.20643013 -21.21353154 -2.13642486 -30.98974609 1.54248047 C-32.46768155 2.25307381 -33.92953916 2.99912232 -35.36474609 3.79248047 C-36.41662109 4.36998047 -37.46849609 4.94748047 -38.55224609 5.54248047 C-46.54529423 11.93691898 -51.71349836 19.60459351 -53.36474609 29.79248047 C-54.34457243 42.05915254 -51.19003043 52.20650716 -43.36474609 61.79248047 C-39.08991159 65.45976144 -34.60681171 67.79681689 -29.36474609 69.79248047 C-29.36474609 70.12248047 -29.36474609 70.45248047 -29.36474609 70.79248047 C-36.77287135 70.79248047 -41.26394959 66.88508949 -46.36474609 61.79248047 C-53.56165329 52.99476588 -56.82189604 43.51983307 -56.30224609 32.16748047 C-55.08571247 21.53548347 -50.96652535 13.36809181 -43.36474609 5.79248047 C-40.19668683 3.36924674 -36.96253639 1.50383127 -33.36474609 -0.20751953 C-32.65705078 -0.54654297 -31.94935547 -0.88556641 -31.22021484 -1.23486328 C-20.73660401 -5.45553777 -10.29266637 -3.5484353 0 0 Z " fill="#AD5100" transform="translate(1123.36474609375,755.20751953125)"/>
<path d="M0 0 C0 0.66 0 1.32 0 2 C-0.99 2.495 -0.99 2.495 -2 3 C-3.43202656 10.98935253 -3.14813303 19.38404517 -3.1328125 27.4765625 C-3.13376923 28.60903412 -3.13472595 29.74150574 -3.13571167 30.90829468 C-3.13638664 33.27626604 -3.13458053 35.64423932 -3.13037109 38.01220703 C-3.12496267 41.6501065 -3.13036477 45.28788531 -3.13671875 48.92578125 C-3.13605883 51.23437527 -3.13477945 53.54296922 -3.1328125 55.8515625 C-3.13483673 56.9410318 -3.13686096 58.0305011 -3.13894653 59.15298462 C-3.13421829 60.65627823 -3.13421829 60.65627823 -3.12939453 62.18994141 C-3.12859894 63.07308014 -3.12780334 63.95621887 -3.12698364 64.86611938 C-3.13719316 67.053357 -3.13719316 67.053357 -2 69 C-1.91456105 71.10528933 -1.89285275 73.21331157 -1.90234375 75.3203125 C-1.90556641 76.57714844 -1.90878906 77.83398438 -1.91210938 79.12890625 C-1.92048828 80.44761719 -1.92886719 81.76632812 -1.9375 83.125 C-1.94251511 84.46484211 -1.94707799 85.804686 -1.95117188 87.14453125 C-1.96298914 90.42973206 -1.97946383 93.71484397 -2 97 C-2.33 97 -2.66 97 -3 97 C-3.06058594 96.08476563 -3.12117188 95.16953125 -3.18359375 94.2265625 C-3.26738281 93.03804687 -3.35117188 91.84953125 -3.4375 90.625 C-3.51871094 89.44164062 -3.59992188 88.25828125 -3.68359375 87.0390625 C-3.81084936 84.08481099 -3.81084936 84.08481099 -5 82 C-6.60069743 73.80957008 -7.14898586 65.7332693 -7.08984375 57.4140625 C-7.08654053 56.51198563 -7.0832373 55.60990875 -7.07983398 54.68049622 C-7.02120623 44.01362261 -6.7648288 33.35085812 -6.5 22.6875 C-6.45159483 20.6634169 -6.40341683 18.63932835 -6.35546875 16.61523438 C-6.23958175 11.74342321 -6.12067707 6.87169477 -6 2 C-2.25 0 -2.25 0 0 0 Z " fill="#AF4F00" transform="translate(1171,824)"/>
<path d="M0 0 C1.98 0.66 3.96 1.32 6 2 C6.33 3.65 6.66 5.3 7 7 C7.66 7 8.32 7 9 7 C9.0232596 14.29370415 9.04098411 21.58740018 9.05181217 28.88113403 C9.05701137 32.26858844 9.06405465 35.65601731 9.07543945 39.04345703 C9.08761141 42.9456448 9.0932527 46.84779666 9.09765625 50.75 C9.10281754 51.95551514 9.10797882 53.16103027 9.11329651 54.40307617 C9.1136925 60.382794 8.83320651 66.08330218 8 72 C7.91525071 74.10162245 7.86950668 76.20526449 7.8671875 78.30859375 C7.86525391 79.46069336 7.86332031 80.61279297 7.86132812 81.79980469 C7.86583984 83.00024414 7.87035156 84.20068359 7.875 85.4375 C7.87790039 87.29036621 7.87790039 87.29036621 7.88085938 89.18066406 C7.92461419 98.48342387 8.25822549 107.7278186 9 117 C3.48373682 108.72560523 4.70450118 95.53501865 4.79418945 85.80908203 C4.81285711 83.70984157 4.81469548 81.61103491 4.81445312 79.51171875 C4.85175998 69.29648005 4.85175998 69.29648005 6 67 C6.09555238 65.32704116 6.12795281 63.65029415 6.12939453 61.97460938 C6.13412277 60.40157043 6.13412277 60.40157043 6.13894653 58.79675293 C6.13591019 57.08751648 6.13591019 57.08751648 6.1328125 55.34375 C6.13376923 54.17171021 6.13472595 52.99967041 6.13571167 51.79211426 C6.13639357 49.30379177 6.1345386 46.81546752 6.13037109 44.32714844 C6.12506116 40.54357823 6.13029588 36.76012881 6.13671875 32.9765625 C6.13605722 30.55729141 6.13477452 28.13802039 6.1328125 25.71875 C6.13483673 24.59545288 6.13686096 23.47215576 6.13894653 22.31481934 C6.11986978 15.81555714 5.79365118 9.45193723 5 3 C4.360625 2.87625 3.72125 2.7525 3.0625 2.625 C2.381875 2.41875 1.70125 2.2125 1 2 C0.67 1.34 0.34 0.68 0 0 Z " fill="#38C600" transform="translate(1099,824)"/>
<path d="M0 0 C-3.47376217 1.15792072 -4.02287935 0.80647419 -7.3125 -0.4375 C-15.14568963 -2.94872844 -24.45470408 -3.66628807 -32 0 C-40.49602664 4.7133434 -47.16874034 10.98527139 -51 20 C-51.66 20 -52.32 20 -53 20 C-53.08837761 23.62484173 -53.14084706 27.24940017 -53.1875 30.875 C-53.21263672 31.88820313 -53.23777344 32.90140625 -53.26367188 33.9453125 C-53.32970578 40.81283888 -52.3779117 46.55345546 -50 53 C-55.00569038 48.38581613 -56.6743012 42.0774985 -57.203125 35.45703125 C-57.40944478 23.81715683 -54.22712578 14.52365558 -46.11328125 6.0234375 C-32.89643627 -6.18072191 -16.14890667 -6.85105131 0 0 Z " fill="#738B00" transform="translate(1126,758)"/>
<path d="M0 0 C2.475 0.99 2.475 0.99 5 2 C5 2.99 5 3.98 5 5 C5.60328125 5.05800781 6.2065625 5.11601563 6.828125 5.17578125 C9 6 9 6 10.484375 8.23046875 C15.8522047 20.77197209 15.11527402 34.11673543 11 47 C9.02734375 49.7734375 9.02734375 49.7734375 7 52 C5.9171875 53.2684375 5.9171875 53.2684375 4.8125 54.5625 C-0.67423998 59.31767465 -6.84006416 61.39064376 -14 62 C-11.6870518 59.6870518 -10.52095125 59.50419025 -7.375 58.875 C-6.14910156 58.62363281 -6.14910156 58.62363281 -4.8984375 58.3671875 C-4.27195312 58.24601563 -3.64546875 58.12484375 -3 58 C-3 57.34 -3 56.68 -3 56 C-1 54.66666667 1 53.33333333 3 52 C6.10362839 48.89637161 7.08276535 45.12997452 8.3515625 41.0234375 C9 39 9 39 10 37 C11.0008261 26.75154075 10.72496775 17.26009304 6 8 C6 7.34 6 6.68 6 6 C5.071875 5.62875 5.071875 5.62875 4.125 5.25 C1.64931313 3.79371361 1.04874998 2.62187494 0 0 Z " fill="#43BB00" transform="translate(1187,759)"/>
<path d="M0 0 C0 3.27331912 -0.72542309 4.89213598 -2 7.875 C-5.35312433 16.94041114 -5.31651976 25.93517281 -1.28125 34.76953125 C1.0236527 38.78202954 3.78294761 42.89147381 8 45 C8 45.66 8 46.32 8 47 C8.9590625 47.185625 8.9590625 47.185625 9.9375 47.375 C10.618125 47.58125 11.29875 47.7875 12 48 C12.33 48.66 12.66 49.32 13 50 C15.3140622 50.73075648 17.64828869 51.40138258 20 52 C20 52.66 20 53.32 20 54 C12.07186462 53.17344972 5.83097096 50.57043821 0 45 C0 44.01 0 43.02 0 42 C-0.99 42 -1.98 42 -3 42 C-8.22471664 31.20069731 -8.24922378 19.64841911 -6 8 C-5.34 8 -4.68 8 -4 8 C-3.71125 7.05125 -3.4225 6.1025 -3.125 5.125 C-2 2 -2 2 0 0 Z " fill="#32CC00" transform="translate(1079,770)"/>
<path d="M0 0 C-0.66 0.33 -1.32 0.66 -2 1 C-2.99 0.67 -3.98 0.34 -5 0 C-11.96160847 -1.15827791 -16.48079461 -0.17704167 -22.375 3.75 C-24.2750987 5.13282116 -26.15158907 6.54881205 -28 8 C-28.88429688 8.61875 -29.76859375 9.2375 -30.6796875 9.875 C-35.71185815 14.48358726 -37.83049921 22.60804624 -38.875 29.25 C-39.01982814 33.59484427 -38.64569653 37.7086015 -38 42 C-40 41 -40 41 -40.60546875 39.31640625 C-42.22459273 29.81006447 -40.90236728 21.71192695 -37 13 C-36.5875 11.9275 -36.175 10.855 -35.75 9.75 C-32.42248217 4.5210434 -27.99218851 0.17168578 -21.875 -1.4375 C-15.01834604 -2.52833131 -5.91023296 -3.94015531 0 0 Z " fill="#21DD00" transform="translate(1115,760)"/>
<path d="M0 0 C0.33 0 0.66 0 1 0 C2.40454548 6.11980533 3.23268915 11.71739294 3 18 C3.66 18 4.32 18 5 18 C5.4125 19.216875 5.825 20.43375 6.25 21.6875 C9.11383064 29.21000444 14.98211096 35.0391338 21.88671875 39.11328125 C29.64809154 42.33066761 38.77068279 41.23968885 47 41 C43.59912624 44.40087376 39.08055102 44.21075602 34.4375 44.375 C27.19806014 44.30349936 19.71809365 42.44830001 14.27734375 37.40234375 C13.1315137 35.97618831 12.06020322 34.49091078 11 33 C9.948125 32.4740625 9.948125 32.4740625 8.875 31.9375 C4.92188485 29.96094242 3.78231761 25.63070877 2.375 21.6875 C0.09706077 14.47203805 -0.15673552 7.523305 0 0 Z " fill="#946A00" transform="translate(1101,931)"/>
<path d="M0 0 C2.83489025 2.83489025 3.161025 5.96133957 4.12109375 9.78515625 C4.55615234 10.88150391 4.55615234 10.88150391 5 12 C5.99 12.33 6.98 12.66 8 13 C8.96009609 14.68844484 9.91661708 16.37917008 10.84375 18.0859375 C13.43157774 22.36984152 16.44824827 25.28878046 21 27.375 C29.06494589 29.1212048 38.89568928 29.45760672 46 25 C49.1131425 22.44601417 52.08780259 19.78012497 55 17 C55 17.99 55 18.98 55 20 C53.57984029 21.25502486 52.14930477 22.5017163 50.65234375 23.6640625 C48.75180294 25.14220181 48.75180294 25.14220181 46.375 27.75 C41.71732507 32.16253415 35.74304636 31.33949327 29.60546875 31.26953125 C20.0651639 30.55633403 13.37381303 25.92587557 7 19 C3.80171965 14.87511507 2 12.31202263 2 7 C1.34 7 0.68 7 0 7 C0 4.69 0 2.38 0 0 Z " fill="#788600" transform="translate(1104,942)"/>
<path d="M0 0 C3.99927162 0.57132452 6.95295469 1.28236499 10 4 C12.46015583 11.30447014 12.29306129 19.10620241 12.265625 26.71875 C12.26753845 27.8984436 12.2694519 29.07813721 12.27142334 30.2935791 C12.27277637 32.7676617 12.269142 35.24175161 12.26074219 37.71582031 C12.24995334 41.51643547 12.26070681 45.31658615 12.2734375 49.1171875 C12.27211725 51.52604271 12.26955765 53.93489764 12.265625 56.34375 C12.26967346 57.48324097 12.27372192 58.62273193 12.27789307 59.79675293 C12.27158875 60.84544556 12.26528442 61.89413818 12.25878906 62.97460938 C12.25640228 64.36166077 12.25640228 64.36166077 12.25396729 65.7767334 C12 68 12 68 10 70 C10.01160156 68.70835937 10.02320313 67.41671875 10.03515625 66.0859375 C10.07644245 59.39028801 10.04915028 52.69553017 10 46 C9.99482361 45.22781128 9.98964722 44.45562256 9.98431396 43.66003418 C9.94693261 38.5490523 9.88266216 33.43922652 9.79147339 28.32891846 C9.76385481 26.61152679 9.74310783 24.89401069 9.72927856 23.17645264 C9.70803137 20.73670939 9.66163898 18.29862547 9.609375 15.859375 C9.60814133 15.12488129 9.60690765 14.39038757 9.6056366 13.63363647 C9.50719898 10.21917133 9.26571475 8.33968662 7.13378906 5.61425781 C4.84895776 3.88573327 2.47299113 2.44257816 0 1 C0 0.67 0 0.34 0 0 Z " fill="#55A900" transform="translate(1094,823)"/>
<path d="M0 0 C0.66 0.33 1.32 0.66 2 1 C4.43317222 10.24605443 3.59277532 18.6960982 -1 27 C-1.66 27 -2.32 27 -3 27 C-3.09539062 27.60714844 -3.19078125 28.21429687 -3.2890625 28.83984375 C-4.16059291 31.48795537 -5.05788715 32.08130761 -7.375 33.5625 C-9.3145472 34.82114234 -10.95918136 35.95857813 -12.5859375 37.609375 C-15.40939995 40.38603973 -19.03731629 40.00061174 -22.8125 40.0625 C-24.3903125 40.0315625 -24.3903125 40.0315625 -26 40 C-26 39.67 -26 39.34 -26 39 C-25.3709375 38.85304688 -24.741875 38.70609375 -24.09375 38.5546875 C-16.05177711 36.44730304 -9.22237025 32.64466363 -4.03125 25.9453125 C0.13688085 18.08270203 0.47060699 8.69751442 0 0 Z " fill="#16E800" transform="translate(1195,778)"/>
<path d="M0 0 C0 0.99 0 1.98 0 3 C-2.475 2.505 -2.475 2.505 -5 2 C-5 1.34 -5 0.68 -5 0 C-16.17670403 -3.26672048 -23.76973655 -5.11836802 -35 -1 C-35.99 -0.34 -36.98 0.32 -38 1 C-40.6875 1.125 -40.6875 1.125 -43 1 C-43 1.66 -43 2.32 -43 3 C-48.03825477 6.4042262 -51.91647366 6.10562007 -57.70703125 5.51953125 C-58.46371094 5.34808594 -59.22039062 5.17664063 -60 5 C-60.33 4.34 -60.66 3.68 -61 3 C-60.41734375 3.05800781 -59.8346875 3.11601563 -59.234375 3.17578125 C-52.63967648 3.53869705 -48.05558003 2.06876101 -42.078125 -0.62109375 C-26.88706611 -7.42622546 -14.90609159 -7.4530458 0 0 Z " fill="#6B9300" transform="translate(1187,756)"/>
<path d="M0 0 C3.66372083 1.25408537 7.1837308 2.32654073 11 3 C11 3.33 11 3.66 11 4 C9.39592672 4.02708567 7.7917215 4.04643483 6.1875 4.0625 C4.84751953 4.07990234 4.84751953 4.07990234 3.48046875 4.09765625 C1 4 1 4 -2 3 C-2 2.34 -2 1.68 -2 1 C-2.61488281 1.01160156 -3.22976563 1.02320313 -3.86328125 1.03515625 C-4.67152344 1.04417969 -5.47976563 1.05320312 -6.3125 1.0625 C-7.51326172 1.07990234 -7.51326172 1.07990234 -8.73828125 1.09765625 C-11 1 -11 1 -14 0 C-15.48123547 -0.0806622 -16.96582204 -0.10761193 -18.44921875 -0.09765625 C-19.29677734 -0.09443359 -20.14433594 -0.09121094 -21.01757812 -0.08789062 C-22.33918945 -0.07532227 -22.33918945 -0.07532227 -23.6875 -0.0625 C-25.02651367 -0.05573242 -25.02651367 -0.05573242 -26.39257812 -0.04882812 C-28.59511987 -0.03704983 -30.79752599 -0.02060164 -33 0 C-31 -3 -31 -3 -29.27734375 -3.66796875 C-18.81406273 -5.19349 -9.82739869 -3.58072771 0 0 Z " fill="#44BA00" transform="translate(1126,759)"/>
<path d="M0 0 C0.66 0.33 1.32 0.66 2 1 C-1.86993394 5.35367568 -5.73429681 7.60269179 -11 10 C-11.60457031 10.3609375 -12.20914062 10.721875 -12.83203125 11.09375 C-20.13660481 14.14719336 -29.79726346 12.23728014 -37.109375 9.94921875 C-39 9 -39 9 -41 6 C-39.54096742 6.30921884 -38.08279278 6.62248799 -36.625 6.9375 C-35.81289062 7.11152344 -35.00078125 7.28554688 -34.1640625 7.46484375 C-32 8 -32 8 -30 9 C-17.76659993 9.99241311 -9.77838353 7.14307449 0 0 Z " fill="#AE5000" transform="translate(1159,965)"/>
<path d="M0 0 C5.59638029 5.0207526 7.16218791 12.32406299 7.875 19.5625 C8.27324646 27.62224976 6.98202352 33.94095831 3 41 C1.85480291 37.56440873 2.21373196 36.18334696 2.9375 32.6875 C4.62858468 23.05414868 5.73601834 13.59700553 0.875 4.76953125 C0 3 0 3 0 0 Z " fill="#9E6000" transform="translate(1196,765)"/>
<path d="M0 0 C1 2 1 2 0.44140625 3.9453125 C0.15136719 4.66460938 -0.13867188 5.38390625 -0.4375 6.125 C-0.86869141 7.21167969 -0.86869141 7.21167969 -1.30859375 8.3203125 C-1.53675781 8.87460937 -1.76492188 9.42890625 -2 10 C-2.66 10 -3.32 10 -4 10 C-4.26039062 10.59425781 -4.52078125 11.18851563 -4.7890625 11.80078125 C-6.07769569 14.14110539 -7.34810441 15.46596641 -9.375 17.1875 C-9.96023438 17.69667969 -10.54546875 18.20585938 -11.1484375 18.73046875 C-15.38605145 21.63600574 -20.09341169 21.15183576 -25.0625 21.125 C-25.78244141 21.12886719 -26.50238281 21.13273438 -27.24414062 21.13671875 C-30.42708639 21.13080799 -32.95947862 21.01350713 -36 20 C-37.6875 16.9375 -37.6875 16.9375 -39 14 C-38.01 14 -37.02 14 -36 14 C-36 14.66 -36 15.32 -36 16 C-35.195625 16.309375 -34.39125 16.61875 -33.5625 16.9375 C-31 18 -31 18 -30 19 C-22.61288013 19.96142087 -16.58738547 19.37696634 -10.3359375 15.19921875 C-5.78124984 10.9111098 -2.91146239 5.48135657 0 0 Z " fill="#2CD200" transform="translate(1160,945)"/>
<path d="M0 0 C0.33 0 0.66 0 1 0 C1.01981934 0.85940186 1.03963867 1.71880371 1.06005859 2.60424805 C1.4678013 19.47826303 2.05344483 36.21804866 4 53 C4.66 53 5.32 53 6 53 C6.33 56.96 6.66 60.92 7 65 C5 61 5 61 5 57 C4.34 57 3.68 57 3 57 C-1.02127324 38.16224975 -0.29605812 19.14812839 0 0 Z " fill="#DF1F00" transform="translate(1096,896)"/>
<path d="M0 0 C-3.86359817 1.4859993 -6.20496652 0.32472597 -10 -1 C-19.66172653 -2.39791946 -26.73975537 -0.45128206 -35.40161133 3.59741211 C-40.74116608 6.08627797 -40.74116608 6.08627797 -44 5 C-41 3 -41 3 -38 3 C-38 2.34 -38 1.68 -38 1 C-37.01 0.731875 -36.02 0.46375 -35 0.1875 C-31.55024028 -0.79214779 -28.23069046 -2.00504428 -24.89453125 -3.31640625 C-15.99378659 -6.52801515 -8.42327391 -3.32905127 0 0 Z " fill="#3DC100" transform="translate(1182,756)"/>
<path d="M0 0 C-3.47376217 1.15792072 -4.02287935 0.80647419 -7.3125 -0.4375 C-15.1696246 -2.95640171 -24.42330818 -3.63628316 -32 0 C-32.825 0.495 -33.65 0.99 -34.5 1.5 C-37 3 -37 3 -39.375 3.75 C-43.35982043 5.64753354 -46.0253619 8.79390591 -49 12 C-49 8.44340664 -48.53025826 8.07459482 -46.125 5.625 C-33.40281225 -6.60488314 -15.45624784 -6.55719605 0 0 Z " fill="#7A8400" transform="translate(1126,758)"/>
<path d="M0 0 C0 0.66 0 1.32 0 2 C1.093125 2.103125 2.18625 2.20625 3.3125 2.3125 C7.05975155 3.01114012 7.65962741 3.31397238 10 6 C8.29107412 5.54388099 6.58288771 5.08499109 4.875 4.625 C3.86308594 4.35300781 2.85117188 4.08101562 1.80859375 3.80078125 C-1 3 -1 3 -4.0625 1.8125 C-12.003027 -0.38381598 -18.65759312 1.20356273 -26.23828125 4.02734375 C-28.82443479 4.93816727 -31.30257923 5.5332332 -34 6 C-29.53684267 0.9446438 -21.87869443 -1.43973454 -15.29296875 -2.05078125 C-10.1392664 -1.93664474 -5.05849501 -0.93304557 0 0 Z " fill="#A35B00" transform="translate(1177,750)"/>
<path d="M0 0 C1 3 1 3 0.2734375 4.95703125 C-1.09210337 7.14776093 -2.55635436 8.85694183 -4.375 10.6875 C-4.96023438 11.28949219 -5.54546875 11.89148438 -6.1484375 12.51171875 C-8.19299385 14.15512797 -9.45061313 14.51871388 -12 15 C-14.55666424 15.81587074 -17.10999722 16.64057052 -19.66015625 17.4765625 C-22 18 -22 18 -25 17 C-23.54293274 16.49632243 -22.08429904 15.99717444 -20.625 15.5 C-19.81289062 15.2215625 -19.00078125 14.943125 -18.1640625 14.65625 C-16 14 -16 14 -14 14 C-14 13.34 -14 12.68 -14 12 C-11 10 -11 10 -8 10 C-7.731875 9.360625 -7.46375 8.72125 -7.1875 8.0625 C-6 6 -6 6 -3 5 C-1.8499169 3.03327085 -1.8499169 3.03327085 -1 1 C-0.67 0.67 -0.34 0.34 0 0 Z " fill="#CA3400" transform="translate(1197,806)"/>
<path d="M0 0 C0.51949219 0.39832031 1.03898437 0.79664063 1.57421875 1.20703125 C8.36445253 6.46880515 8.36445253 6.46880515 16.125 10 C19.07610241 11.0264704 20.14337411 11.56366528 22 14 C22.34057617 16.36010742 22.34057617 16.36010742 22.29296875 19.10546875 C22.28330078 20.08837891 22.27363281 21.07128906 22.26367188 22.08398438 C22.23853516 23.10814453 22.21339844 24.13230469 22.1875 25.1875 C22.16719727 26.74114258 22.16719727 26.74114258 22.14648438 28.32617188 C22.11111389 30.88463699 22.06175544 33.4420578 22 36 C21.67 36 21.34 36 21 36 C20.32546899 28.31516461 19.8432436 20.71589817 20 13 C19.34 12.9175 18.68 12.835 18 12.75 C11.05963772 11.01490943 4.84305603 7.29709253 0 2 C0 1.34 0 0.68 0 0 Z " fill="#D72700" transform="translate(1076,816)"/>
<path d="M0 0 C0.33 0 0.66 0 1 0 C2.40454548 6.11980533 3.23268915 11.71739294 3 18 C3.66 18 4.32 18 5 18 C5.19335938 18.55429687 5.38671875 19.10859375 5.5859375 19.6796875 C5.84632812 20.40414062 6.10671875 21.12859375 6.375 21.875 C6.63023438 22.59429688 6.88546875 23.31359375 7.1484375 24.0546875 C7.93877783 26.18157994 7.93877783 26.18157994 10 28 C10 29.32 10 30.64 10 32 C7 31 7 31 5.5 29 C0.76785366 19.53570733 -0.21754218 10.44202444 0 0 Z " fill="#A25C00" transform="translate(1101,931)"/>
<path d="M0 0 C0.33 0 0.66 0 1 0 C0.61071921 5.74189162 0.13821057 8.74683913 -4 13 C-5.0828125 14.2684375 -5.0828125 14.2684375 -6.1875 15.5625 C-11.67423998 20.31767465 -17.84006416 22.39064376 -25 23 C-22.6870518 20.6870518 -21.52095125 20.50419025 -18.375 19.875 C-17.55773438 19.70742188 -16.74046875 19.53984375 -15.8984375 19.3671875 C-15.27195312 19.24601563 -14.64546875 19.12484375 -14 19 C-14 18.34 -14 17.68 -14 17 C-13.113125 16.443125 -12.22625 15.88625 -11.3125 15.3125 C-5.66725828 11.73096693 -2.7518637 5.9382322 0 0 Z " fill="#619D00" transform="translate(1198,798)"/>
<path d="M0 0 C3 2 3 2 4 5 C4.721875 5.391875 5.44375 5.78375 6.1875 6.1875 C9.01275386 8.00821916 10.11121833 9.35866268 12 12.0625 C14.31422631 15.3299957 15.95965182 17.04932984 20 18 C18 19 18 19 15.875 18.4375 C11.92656307 16.46328153 8.17172241 14.09301962 5 11 C5 10.01 5 9.02 5 8 C4.01 7.67 3.02 7.34 2 7 C0.8125 3.4375 0.8125 3.4375 0 0 Z " fill="#C43A00" transform="translate(1105,957)"/>
<path d="M0 0 C1.49180742 4.47542225 0.14664414 7.59241799 -1.3515625 11.96484375 C-4.1345616 17.08899137 -8.68429452 19.81465441 -14 22 C-14.66 21.67 -15.32 21.34 -16 21 C-13.36827726 18.29087365 -10.8939363 15.91939159 -7.875 13.625 C-4.587498 10.62336774 -3.50770392 8.14618577 -2 4 C-1.34711373 2.65986503 -0.68774405 1.32258472 0 0 Z " fill="#8F6F00" transform="translate(1164,950)"/>
<path d="M0 0 C2.57619276 1.91315119 2.98395232 2.9016314 3.51171875 6.13671875 C3.56972656 7.30847656 3.62773438 8.48023438 3.6875 9.6875 C3.75324219 10.86699219 3.81898437 12.04648437 3.88671875 13.26171875 C3.92410156 14.16535156 3.96148438 15.06898438 4 16 C4.66 16 5.32 16 6 16 C6 17.98 6 19.96 6 22 C1.75833118 18.88944286 1.13814847 15.54484271 0.3046875 10.6171875 C-0.11240982 7.03442846 -0.1334555 3.60329838 0 0 Z " fill="#20DE00" transform="translate(1107,928)"/>
<path d="M0 0 C13.86 0.99 13.86 0.99 28 2 C23.8643159 4.75712273 20.54528356 4.33083126 15.6875 4.3125 C14.84509766 4.32861328 14.00269531 4.34472656 13.13476562 4.36132812 C7.98225367 4.36535667 4.50230993 3.78364676 0 1 C0 0.67 0 0.34 0 0 Z " fill="#CA3400" transform="translate(1120,975)"/>
<path d="M0 0 C0.33 0.66 0.66 1.32 1 2 C0.2578125 4.1015625 0.2578125 4.1015625 -0.875 6.625 C-4.05628565 14.29751245 -4.22924879 20.8302234 -3 29 C-5 28 -5 28 -5.609375 26.328125 C-6.97040098 18.21641015 -6.69176575 10.38353151 -3 3 C-2.03229135 1.96871925 -1.03849959 0.9599576 0 0 Z " fill="#14EA00" transform="translate(1080,773)"/>
<path d="M0 0 C0.99 0 1.98 0 3 0 C4.3927289 1.61736259 5.71937515 3.2925002 7 5 C7.680625 5.5775 8.36125 6.155 9.0625 6.75 C13.79610279 12.24708711 14.38111829 19.01283135 14 26 C13.67 26 13.34 26 13 26 C12.77957031 24.83984375 12.77957031 24.83984375 12.5546875 23.65625 C10.76112726 15.32753349 7.98798923 9.98798923 2 4 C2 3.01 2 2.02 2 1 C1.34 0.67 0.68 0.34 0 0 Z " fill="#35C900" transform="translate(1184,759)"/>
<path d="M0 0 C2.475 0.99 2.475 0.99 5 2 C5 2.99 5 3.98 5 5 C5.60328125 5.04769531 6.2065625 5.09539063 6.828125 5.14453125 C9 6 9 6 10.484375 8.51171875 C10.90203125 9.55972656 11.3196875 10.60773437 11.75 11.6875 C12.17796875 12.72261719 12.6059375 13.75773438 13.046875 14.82421875 C14.01880373 18.06265341 14.18130384 20.64084283 14 24 C13.67 24 13.34 24 13 24 C12.5978125 22.1128125 12.5978125 22.1128125 12.1875 20.1875 C11.35353443 16.80432053 10.50786081 15.40336661 8 13 C7.690625 11.824375 7.38125 10.64875 7.0625 9.4375 C6.40114129 5.93577597 6.40114129 5.93577597 4 4.8125 C3.34 4.544375 2.68 4.27625 2 4 C0.75 1.875 0.75 1.875 0 0 Z " fill="#6B9300" transform="translate(1187,759)"/>
<path d="M0 0 C5.5658728 2.36549594 9.58595572 5.91084731 14 10 C13.67 11.32 13.34 12.64 13 14 C12.01 13.67 11.02 13.34 10 13 C9.67 12.01 9.34 11.02 9 10 C8.34 9.690625 7.68 9.38125 7 9.0625 C6.34 8.711875 5.68 8.36125 5 8 C4.66666667 6.66666667 4.33333333 5.33333333 4 4 C2.0162233 2.71563266 2.0162233 2.71563266 0 2 C0 1.34 0 0.68 0 0 Z " fill="#D42B00" transform="translate(1182,751)"/>
<path d="M0 0 C1.57939045 4.86978722 0.18869989 8.51279923 -2 13 C-4.14016929 15.8709588 -6.47642351 18.4625957 -9 21 C-9 17.56337914 -8.0120958 16.53706383 -6.08984375 13.828125 C-4.09066133 10.47465771 -3.09351937 6.72790695 -2 3 C-1.34 3 -0.68 3 0 3 C0 2.01 0 1.02 0 0 Z " fill="#619D00" transform="translate(1164,943)"/>
<path d="M0 0 C6.875 3.75 6.875 3.75 8 6 C9.99291777 6.78344256 12.02051823 7.48016365 14.0625 8.125 C15.71958984 8.65480469 15.71958984 8.65480469 17.41015625 9.1953125 C18.69212891 9.59363281 18.69212891 9.59363281 20 10 C20 10.66 20 11.32 20 12 C12.07186462 11.17344972 5.83097096 8.57043821 0 3 C0 2.01 0 1.02 0 0 Z " fill="#44BA00" transform="translate(1079,812)"/>
<path d="M0 0 C2.72657838 2.64867614 5.29129572 5.29753401 7.6875 8.25 C9.7042322 11.01742194 9.7042322 11.01742194 12 12 C12 12.66 12 13.32 12 14 C13.32 14.33 14.64 14.66 16 15 C14.68 15.33 13.36 15.66 12 16 C11.67 15.01 11.34 14.02 11 13 C9.67511887 12.63451555 8.33981486 12.3062434 7 12 C4.32705804 10.70402814 3.22658168 9.54283187 2.08203125 6.80078125 C1.32827596 4.54659291 0.63386379 2.29055326 0 0 Z " fill="#2AD400" transform="translate(1075,803)"/>
<path d="M0 0 C2 0 2 0 3.4375 1.1875 C5 3 5 3 6.3125 5.4375 C8.40482745 8.61473798 10.79694772 9.99809233 14 12 C15.875 13.75 15.875 13.75 17 15 C13.60975317 15 11.53412012 14.44862067 8.92578125 12.2578125 C6.89995259 10.21326084 4.93986308 8.12599067 3 6 C2.13955078 5.22269531 2.13955078 5.22269531 1.26171875 4.4296875 C0 3 0 3 0 0 Z " fill="#DA2400" transform="translate(1105,962)"/>
<path d="M0 0 C0 0.99 0 1.98 0 3 C-5.73230171 5.85288164 -10.59859065 7.53444296 -17 8 C-16.34 7.67 -15.68 7.34 -15 7 C-15 6.34 -15 5.68 -15 5 C-14.00097656 4.72285156 -13.00195312 4.44570313 -11.97265625 4.16015625 C-10.66922209 3.79444451 -9.36583931 3.42854962 -8.0625 3.0625 C-7.40314453 2.88009766 -6.74378906 2.69769531 -6.06445312 2.50976562 C-2.76178827 1.77403899 -2.76178827 1.77403899 0 0 Z " fill="#C93500" transform="translate(1186,819)"/>
<path d="M0 0 C0.671875 1.68359375 0.671875 1.68359375 1 4 C-0.109375 6.47265625 -0.109375 6.47265625 -1.75 9.0625 C-2.28109375 9.91972656 -2.8121875 10.77695312 -3.359375 11.66015625 C-4.77979959 13.68595227 -6.18457571 15.33221563 -8 17 C-8.66 16.67 -9.32 16.34 -10 16 C-9.46375 15.401875 -8.9275 14.80375 -8.375 14.1875 C-5.05947503 9.73771649 -2.57679389 4.90449771 0 0 Z " fill="#E81600" transform="translate(1170,956)"/>
<path d="M0 0 C0.66 0 1.32 0 2 0 C0.5666944 5.01656959 -1.90563952 7.01452882 -6 10 C-6.66 10 -7.32 10 -8 10 C-8 10.66 -8 11.32 -8 12 C-10.31 12.66 -12.62 13.32 -15 14 C-14.67 13.34 -14.34 12.68 -14 12 C-11.4375 11.375 -11.4375 11.375 -9 11 C-8.67 10.01 -8.34 9.02 -8 8 C-3.54285714 4 -3.54285714 4 -1 4 C-0.67 2.68 -0.34 1.36 0 0 Z " fill="#33CB00" transform="translate(1192,805)"/>
<path d="M0 0 C0.66 0.33 1.32 0.66 2 1 C1.38511719 1.65226563 0.77023437 2.30453125 0.13671875 2.9765625 C-0.67152344 3.85054687 -1.47976563 4.72453125 -2.3125 5.625 C-3.51326172 6.91277344 -3.51326172 6.91277344 -4.73828125 8.2265625 C-7.01794872 11.02200966 -8.51580738 13.72420916 -10 17 C-10.75 15.375 -10.75 15.375 -11 13 C-8.24171937 7.82822382 -4.22314743 4.00961751 0 0 Z " fill="#54AA00" transform="translate(1085,761)"/>
<path d="M0 0 C2.48659621 2.48659621 3.0343111 4.60483946 4.125 7.9375 C4.47820312 8.99839844 4.83140625 10.05929687 5.1953125 11.15234375 C6 14 6 14 6 17 C2 11.5 2 11.5 2 7 C1.34 7 0.68 7 0 7 C0 4.69 0 2.38 0 0 Z " fill="#827C00" transform="translate(1104,942)"/>
<path d="M0 0 C0.99 0.33 1.98 0.66 3 1 C-2.10771586 6.24576223 -6.83979714 7.14638151 -14 8 C-11.6870518 5.6870518 -10.52095125 5.50419025 -7.375 4.875 C-6.55773438 4.70742188 -5.74046875 4.53984375 -4.8984375 4.3671875 C-4.27195312 4.24601563 -3.64546875 4.12484375 -3 4 C-3 3.34 -3 2.68 -3 2 C-2.01 1.34 -1.02 0.68 0 0 Z " fill="#976700" transform="translate(1186,816)"/>
<path d="M0 0 C0.99 0 1.98 0 3 0 C3 0.99 3 1.98 3 3 C3.66 3 4.32 3 5 3 C5 4.98 5 6.96 5 9 C1.7457985 6.16569547 0.4793247 4.31392226 0 0 Z " fill="#29D600" transform="translate(1108,941)"/>
<path d="M0 0 C3.65844986 3.29260487 5.83551416 6.05570351 6.1171875 11.09765625 C6.12412868 13.06547967 6.066668 15.03329398 6 17 C5.67 17 5.34 17 5 17 C4.80664062 16.19175781 4.61328125 15.38351562 4.4140625 14.55078125 C4.15367188 13.48214844 3.89328125 12.41351562 3.625 11.3125 C3.36976562 10.25675781 3.11453125 9.20101562 2.8515625 8.11328125 C2.08094511 5.29593234 1.14501457 2.68331675 0 0 Z " fill="#28D600" transform="translate(1192,768)"/>
<path d="M0 0 C1 3 1 3 0.328125 4.97265625 C-0.02765625 5.66230469 -0.3834375 6.35195313 -0.75 7.0625 C-1.26820312 8.10083984 -1.26820312 8.10083984 -1.796875 9.16015625 C-3 11 -3 11 -6 13 C-5.67 11.35 -5.34 9.7 -5 8 C-4.34 8 -3.68 8 -3 8 C-2.690625 6.865625 -2.38125 5.73125 -2.0625 4.5625 C-1 1 -1 1 0 0 Z " fill="#B64800" transform="translate(1167,952)"/>
<path d="M0 0 C0.33 0 0.66 0 1 0 C1.56561146 5.65611463 -0.28608722 9.22642128 -3 14 C-3.66 14 -4.32 14 -5 14 C-3.45730076 9.27934033 -1.92205381 4.58335908 0 0 Z " fill="#A15D00" transform="translate(1167,946)"/>
<path d="M0 0 C-5.27461371 4.66600443 -11.33773626 4.11486662 -18 4 C-18 3.67 -18 3.34 -18 3 C-17.25234375 2.87882813 -16.5046875 2.75765625 -15.734375 2.6328125 C-14.74953125 2.46523438 -13.7646875 2.29765625 -12.75 2.125 C-11.77546875 1.96257813 -10.8009375 1.80015625 -9.796875 1.6328125 C-7.02555762 1.13092726 -7.02555762 1.13092726 -4.828125 -0.1328125 C-3 -1 -3 -1 0 0 Z " fill="#22DC00" transform="translate(1148,760)"/>
<path d="M0 0 C4.99911924 0.47610659 7.97832683 2.03162219 12 5 C9 6 9 6 6.375 5.1875 C4 4 4 4 3 2 C2.01 1.34 1.02 0.68 0 0 Z " fill="#16E800" transform="translate(1087,816)"/>
<path d="M0 0 C3.53372712 1.96318174 6.24479785 4.04070881 9 7 C8.67 7.66 8.34 8.32 8 9 C7.01 8.67 6.02 8.34 5 8 C4.67 7.01 4.34 6.02 4 5 C1.99983534 3.79117904 1.99983534 3.79117904 0 3 C0 2.01 0 1.02 0 0 Z " fill="#A45A00" transform="translate(1187,756)"/>
<path d="M0 0 C3.94627764 0.56375395 6.79480075 1.59610056 10 4 C10.8125 6.1875 10.8125 6.1875 11 8 C10.34 8 9.68 8 9 8 C7.66666667 6.66666667 6.33333333 5.33333333 5 4 C3.34338239 2.98343919 1.67888441 1.97934924 0 1 C0 0.67 0 0.34 0 0 Z " fill="#53AB00" transform="translate(1094,823)"/>
<path d="M0 0 C0.33 0 0.66 0 1 0 C1.05422947 1.4370809 1.09289723 2.87475462 1.125 4.3125 C1.14820313 5.11300781 1.17140625 5.91351562 1.1953125 6.73828125 C1 9 1 9 -1 12 C-2.11658501 7.31034294 -1.80619523 4.46236469 0 0 Z " fill="#EE1000" transform="translate(1096,881)"/>
<path d="M0 0 C0.33 0.66 0.66 1.32 1 2 C-1.85276137 4.93200474 -4.65079784 7.64315404 -8 10 C-7.1875 8.0625 -7.1875 8.0625 -6 6 C-5.01 5.67 -4.02 5.34 -3 5 C-1.8499169 3.03327085 -1.8499169 3.03327085 -1 1 C-0.67 0.67 -0.34 0.34 0 0 Z " fill="#9E6000" transform="translate(1197,806)"/>
<path d="M0 0 C3.2910841 3.60957611 4.54663921 6.12637153 5 11 C4.34 11 3.68 11 3 11 C2.49384702 9.73160474 1.99530901 8.46016898 1.5 7.1875 C1.2215625 6.47980469 0.943125 5.77210938 0.65625 5.04296875 C0 3 0 3 0 0 Z " fill="#54AA00" transform="translate(1073,801)"/>
<path d="M0 0 C0.515625 0.2475 1.03125 0.495 1.5625 0.75 C-4.8375 4.81153846 -4.8375 4.81153846 -7.875 4.5 C-8.390625 4.2525 -8.90625 4.005 -9.4375 3.75 C-3.0375 -0.31153846 -3.0375 -0.31153846 0 0 Z " fill="#C03E00" transform="translate(1153.4375,972.25)"/>
<path d="M0 0 C0.99 0 1.98 0 3 0 C3 0.66 3 1.32 3 2 C5.475 2.99 5.475 2.99 8 4 C8 4.33 8 4.66 8 5 C5.6875 5.3125 5.6875 5.3125 3 5 C1.1875 2.5 1.1875 2.5 0 0 Z " fill="#23DB00" transform="translate(1121,959)"/>
<path d="M0 0 C1.98 0.66 3.96 1.32 6 2 C6 2.99 6 3.98 6 5 C4.35 4.67 2.7 4.34 1 4 C0.67 2.68 0.34 1.36 0 0 Z " fill="#708F00" transform="translate(1181,754)"/>
<path d="M0 0 C2.64752004 2.57784846 4.94432065 4.91648098 7 8 C4.13792848 6.71700242 1.9754912 5.469364 0 3 C0 2.01 0 1.02 0 0 Z " fill="#B04E00" transform="translate(1111,963)"/>
<path d="M0 0 C3.26954202 0.56371414 4.82575883 1.49962266 7 4 C6.67 4.99 6.34 5.98 6 7 C5.7525 6.38125 5.505 5.7625 5.25 5.125 C3.79371361 2.64931313 2.62187494 2.04874998 0 1 C0 0.67 0 0.34 0 0 Z " fill="#11EE00" transform="translate(1183,762)"/>
<path d="M0 0 C2.97 0.495 2.97 0.495 6 1 C6 1.66 6 2.32 6 3 C6.66 3 7.32 3 8 3 C8 3.66 8 4.32 8 5 C7.01 5 6.02 5 5 5 C5 4.34 5 3.68 5 3 C2.525 2.01 2.525 2.01 0 1 C0 0.67 0 0.34 0 0 Z " fill="#25D900" transform="translate(1178,757)"/>
</svg>
